<svg width="23" height="22" viewBox="0 0 23 22" fill="none" xmlns="http://www.w3.org/2000/svg">
<path d="M16.5588 1H6.55881C3.79738 1 1.55881 3.23858 1.55881 6V16C1.55881 18.7614 3.79738 21 6.55881 21H16.5588C19.3202 21 21.5588 18.7614 21.5588 16V6C21.5588 3.23858 19.3202 1 16.5588 1Z" stroke="white" stroke-width="2" stroke-linecap="round" stroke-linejoin="round"/>
<path d="M15.5585 10.3698C15.6819 11.2021 15.5398 12.052 15.1523 12.7988C14.7648 13.5456 14.1517 14.1512 13.4001 14.5295C12.6486 14.9077 11.797 15.0394 10.9663 14.9057C10.1356 14.7721 9.36828 14.3799 8.77335 13.785C8.17843 13.1901 7.78625 12.4227 7.65258 11.592C7.51892 10.7614 7.65058 9.90971 8.02884 9.15819C8.4071 8.40667 9.0127 7.79355 9.7595 7.40605C10.5063 7.01856 11.3563 6.8764 12.1885 6.99981C13.0374 7.1257 13.8234 7.52128 14.4302 8.12812C15.0371 8.73496 15.4326 9.52089 15.5585 10.3698Z" stroke="white" stroke-width="2" stroke-linecap="round" stroke-linejoin="round"/>
<path d="M17.0588 5.5H17.0688" stroke="white" stroke-width="2" stroke-linecap="round" stroke-linejoin="round"/>
</svg>
