<svg width="25" height="18" viewBox="0 0 25 18" fill="none" xmlns="http://www.w3.org/2000/svg">
<path d="M23.0994 3.42C22.9806 2.94541 22.7387 2.51057 22.398 2.15941C22.0574 1.80824 21.6301 1.55318 21.1594 1.42C19.4394 1 12.5594 1 12.5594 1C12.5594 1 5.67938 1 3.95938 1.46C3.48863 1.59318 3.06136 1.84824 2.72073 2.19941C2.3801 2.55057 2.13817 2.98541 2.01938 3.46C1.70459 5.20556 1.55061 6.97631 1.55938 8.75C1.54816 10.537 1.70215 12.3213 2.01938 14.08C2.15034 14.5398 2.39769 14.9581 2.73752 15.2945C3.07736 15.6308 3.4982 15.8738 3.95938 16C5.67938 16.46 12.5594 16.46 12.5594 16.46C12.5594 16.46 19.4394 16.46 21.1594 16C21.6301 15.8668 22.0574 15.6118 22.398 15.2606C22.7387 14.9094 22.9806 14.4746 23.0994 14C23.4117 12.2676 23.5657 10.5103 23.5594 8.75C23.5706 6.96295 23.4166 5.1787 23.0994 3.42V3.42Z" stroke="white" stroke-width="2" stroke-linecap="round" stroke-linejoin="round"/>
<path d="M10.3098 12.02L16.0598 8.74998L10.3098 5.47998V12.02Z" stroke="white" stroke-width="2" stroke-linecap="round" stroke-linejoin="round"/>
</svg>
