<svg width="181" height="32" viewBox="0 0 181 32" fill="none" xmlns="http://www.w3.org/2000/svg">
<path d="M59.6015 13.1599L59.7145 14.9053C60.2838 14.2858 60.9661 13.8003 61.7614 13.4487C62.565 13.0887 63.4399 12.9087 64.3859 12.9087C65.6081 12.9087 66.6964 13.1934 67.6508 13.7626C68.6051 14.3235 69.3544 15.0979 69.8985 16.0857C70.4511 17.0652 70.7273 18.1828 70.7273 19.4385C70.7273 20.6943 70.4511 21.8161 69.8985 22.8039C69.3544 23.7834 68.6051 24.5577 67.6508 25.127C66.6964 25.6879 65.6081 25.9684 64.3859 25.9684C63.465 25.9684 62.6111 25.8009 61.8242 25.4661C61.0456 25.1312 60.3717 24.6666 59.8024 24.0722V31.9959H57.7305V13.1599H59.6015ZM64.1975 24.0848C65.043 24.0848 65.7965 23.8838 66.4578 23.482C67.1192 23.0802 67.6382 22.5276 68.0149 21.8244C68.4 21.1212 68.5926 20.3259 68.5926 19.4385C68.5926 18.5428 68.4 17.7475 68.0149 17.0526C67.6382 16.3494 67.1192 15.7969 66.4578 15.3951C65.7965 14.9932 65.043 14.7923 64.1975 14.7923C63.352 14.7923 62.5985 14.9932 61.9372 15.3951C61.2758 15.7969 60.7526 16.3494 60.3675 17.0526C59.9908 17.7475 59.8024 18.5428 59.8024 19.4385C59.8024 20.3259 59.9908 21.1212 60.3675 21.8244C60.7526 22.5276 61.2758 23.0802 61.9372 23.482C62.5985 23.8838 63.352 24.0848 64.1975 24.0848Z" fill="white"/>
<path d="M72.5933 25.7172V13.1599H74.4644L74.59 15.1314C75.0085 14.4616 75.5485 13.9259 76.2098 13.524C76.8712 13.1138 77.6623 12.9087 78.5832 12.9087C78.9599 12.9087 79.3534 12.9464 79.7636 13.0217L79.4622 14.943C79.052 14.8426 78.6669 14.7923 78.3069 14.7923C77.1516 14.7923 76.2559 15.2193 75.6197 16.0732C74.9834 16.9187 74.6653 17.9693 74.6653 19.2251V25.7172H72.5933Z" fill="white"/>
<path d="M79.746 19.4385C79.746 18.1828 80.0264 17.0652 80.5873 16.0857C81.1566 15.0979 81.931 14.3235 82.9104 13.7626C83.8983 13.1934 85.0201 12.9087 86.2758 12.9087C87.5315 12.9087 88.6491 13.1934 89.6286 13.7626C90.6165 14.3235 91.3908 15.0979 91.9517 16.0857C92.521 17.0652 92.8056 18.1828 92.8056 19.4385C92.8056 20.6943 92.521 21.8161 91.9517 22.8039C91.3908 23.7834 90.6165 24.5577 89.6286 25.127C88.6491 25.6879 87.5315 25.9684 86.2758 25.9684C85.0201 25.9684 83.8983 25.6879 82.9104 25.127C81.931 24.5577 81.1566 23.7834 80.5873 22.8039C80.0264 21.8161 79.746 20.6943 79.746 19.4385ZM81.8807 19.4385C81.8807 20.3259 82.0691 21.1212 82.4458 21.8244C82.8309 22.5276 83.3541 23.0802 84.0155 23.482C84.6768 23.8838 85.4303 24.0848 86.2758 24.0848C87.1213 24.0848 87.8748 23.8838 88.5361 23.482C89.1975 23.0802 89.7165 22.5276 90.0932 21.8244C90.4783 21.1212 90.6709 20.3259 90.6709 19.4385C90.6709 18.5428 90.4783 17.7475 90.0932 17.0526C89.7165 16.3494 89.1975 15.7969 88.5361 15.3951C87.8748 14.9932 87.1213 14.7923 86.2758 14.7923C85.4303 14.7923 84.6768 14.9932 84.0155 15.3951C83.3541 15.7969 82.8309 16.3494 82.4458 17.0526C82.0691 17.7475 81.8807 18.5428 81.8807 19.4385Z" fill="white"/>
<path d="M96.4799 13.1599V19.9911C96.4799 21.2049 96.8064 22.1928 97.4594 22.9546C98.1207 23.708 98.9788 24.0848 100.034 24.0848C100.745 24.0848 101.381 23.9131 101.942 23.5699C102.503 23.2183 102.947 22.7453 103.273 22.1509C103.6 21.5482 103.763 20.8701 103.763 20.1166V13.1599H105.835V25.7172H103.964L103.851 23.8085C103.366 24.4866 102.759 25.0182 102.03 25.4033C101.31 25.78 100.507 25.9684 99.6192 25.9684C98.6063 25.9684 97.7063 25.7256 96.9194 25.24C96.1409 24.7461 95.5255 24.068 95.0735 23.2057C94.6298 22.3435 94.4079 21.3556 94.4079 20.2422V13.1599H96.4799Z" fill="white"/>
<path d="M114.03 12.9087C114.951 12.9087 115.805 13.0762 116.592 13.411C117.379 13.7459 118.053 14.2105 118.613 14.8049V6.8812H120.685V25.7172H118.814L118.701 23.9717C118.14 24.5912 117.458 25.081 116.655 25.4409C115.851 25.7926 114.976 25.9684 114.03 25.9684C112.816 25.9684 111.728 25.6879 110.765 25.127C109.811 24.5577 109.057 23.7834 108.505 22.8039C107.961 21.8161 107.689 20.6943 107.689 19.4385C107.689 18.1828 107.961 17.0652 108.505 16.0857C109.057 15.0979 109.811 14.3235 110.765 13.7626C111.728 13.1934 112.816 12.9087 114.03 12.9087ZM109.823 19.4385C109.823 20.3259 110.012 21.1212 110.388 21.8244C110.774 22.5276 111.297 23.0802 111.958 23.482C112.619 23.8838 113.373 24.0848 114.218 24.0848C115.064 24.0848 115.817 23.8838 116.479 23.482C117.14 23.0802 117.659 22.5276 118.036 21.8244C118.421 21.1212 118.613 20.3259 118.613 19.4385C118.613 18.5428 118.421 17.7475 118.036 17.0526C117.659 16.3494 117.14 15.7969 116.479 15.3951C115.817 14.9932 115.064 14.7923 114.218 14.7923C113.373 14.7923 112.619 14.9932 111.958 15.3951C111.297 15.7969 110.774 16.3494 110.388 17.0526C110.012 17.7475 109.823 18.5428 109.823 19.4385Z" fill="white"/>
<path d="M133.765 24.1099C133.179 24.6959 132.488 25.1521 131.693 25.4786C130.898 25.8051 130.027 25.9684 129.081 25.9684C127.826 25.9684 126.704 25.6879 125.716 25.127C124.736 24.5577 123.962 23.7834 123.393 22.8039C122.832 21.8161 122.551 20.6943 122.551 19.4385C122.551 18.1828 122.832 17.0652 123.393 16.0857C123.962 15.0979 124.736 14.3235 125.716 13.7626C126.704 13.1934 127.826 12.9087 129.081 12.9087C130.027 12.9087 130.898 13.072 131.693 13.3985C132.488 13.7249 133.179 14.177 133.765 14.7547L132.321 16.1987C131.928 15.7551 131.455 15.4118 130.902 15.169C130.35 14.9179 129.743 14.7923 129.081 14.7923C128.236 14.7923 127.482 14.9932 126.821 15.3951C126.16 15.7969 125.636 16.3494 125.251 17.0526C124.875 17.7475 124.686 18.5428 124.686 19.4385C124.686 20.3259 124.875 21.1212 125.251 21.8244C125.636 22.5276 126.16 23.0802 126.821 23.482C127.482 23.8838 128.236 24.0848 129.081 24.0848C129.743 24.0848 130.35 23.9592 130.902 23.708C131.455 23.4569 131.928 23.1137 132.321 22.6783L133.765 24.1099Z" fill="white"/>
<path d="M137.766 6.37891V25.7172H135.631V6.37891H137.766Z" fill="white"/>
<path d="M139.619 19.4385C139.619 18.1828 139.9 17.0652 140.461 16.0857C141.03 15.0979 141.804 14.3235 142.784 13.7626C143.772 13.1934 144.893 12.9087 146.149 12.9087C147.405 12.9087 148.523 13.1934 149.502 13.7626C150.49 14.3235 151.264 15.0979 151.825 16.0857C152.394 17.0652 152.679 18.1828 152.679 19.4385C152.679 20.6943 152.394 21.8161 151.825 22.8039C151.264 23.7834 150.49 24.5577 149.502 25.127C148.523 25.6879 147.405 25.9684 146.149 25.9684C144.893 25.9684 143.772 25.6879 142.784 25.127C141.804 24.5577 141.03 23.7834 140.461 22.8039C139.9 21.8161 139.619 20.6943 139.619 19.4385ZM141.754 19.4385C141.754 20.3259 141.942 21.1212 142.319 21.8244C142.704 22.5276 143.228 23.0802 143.889 23.482C144.55 23.8838 145.304 24.0848 146.149 24.0848C146.995 24.0848 147.748 23.8838 148.41 23.482C149.071 23.0802 149.59 22.5276 149.967 21.8244C150.352 21.1212 150.544 20.3259 150.544 19.4385C150.544 18.5428 150.352 17.7475 149.967 17.0526C149.59 16.3494 149.071 15.7969 148.41 15.3951C147.748 14.9932 146.995 14.7923 146.149 14.7923C145.304 14.7923 144.55 14.9932 143.889 15.3951C143.228 15.7969 142.704 16.3494 142.319 17.0526C141.942 17.7475 141.754 18.5428 141.754 19.4385Z" fill="white"/>
<path d="M156.353 13.1599V19.9911C156.353 21.2049 156.68 22.1928 157.333 22.9546C157.994 23.708 158.852 24.0848 159.907 24.0848C160.619 24.0848 161.255 23.9131 161.816 23.5699C162.377 23.2183 162.82 22.7453 163.147 22.1509C163.473 21.5482 163.637 20.8701 163.637 20.1166V13.1599H165.709V25.7172H163.837L163.724 23.8085C163.239 24.4866 162.632 25.0182 161.904 25.4033C161.184 25.78 160.38 25.9684 159.493 25.9684C158.48 25.9684 157.58 25.7256 156.793 25.24C156.014 24.7461 155.399 24.068 154.947 23.2057C154.503 22.3435 154.281 21.3556 154.281 20.2422V13.1599H156.353Z" fill="white"/>
<path d="M173.903 12.9087C174.824 12.9087 175.678 13.0762 176.465 13.411C177.252 13.7459 177.926 14.2105 178.487 14.8049V6.8812H180.559V25.7172H178.688L178.575 23.9717C178.014 24.5912 177.332 25.081 176.528 25.4409C175.724 25.7926 174.849 25.9684 173.903 25.9684C172.69 25.9684 171.601 25.6879 170.639 25.127C169.684 24.5577 168.931 23.7834 168.378 22.8039C167.834 21.8161 167.562 20.6943 167.562 19.4385C167.562 18.1828 167.834 17.0652 168.378 16.0857C168.931 15.0979 169.684 14.3235 170.639 13.7626C171.601 13.1934 172.69 12.9087 173.903 12.9087ZM169.697 19.4385C169.697 20.3259 169.885 21.1212 170.262 21.8244C170.647 22.5276 171.17 23.0802 171.831 23.482C172.493 23.8838 173.246 24.0848 174.092 24.0848C174.937 24.0848 175.691 23.8838 176.352 23.482C177.013 23.0802 177.532 22.5276 177.909 21.8244C178.294 21.1212 178.487 20.3259 178.487 19.4385C178.487 18.5428 178.294 17.7475 177.909 17.0526C177.532 16.3494 177.013 15.7969 176.352 15.3951C175.691 14.9932 174.937 14.7923 174.092 14.7923C173.246 14.7923 172.493 14.9932 171.831 15.3951C171.17 15.7969 170.647 16.3494 170.262 17.0526C169.885 17.7475 169.697 18.5428 169.697 19.4385Z" fill="white"/>
<g clip-path="url(#clip0_1_842)">
<path d="M45.7198 17.7789C45.6612 25.6798 39.2198 32.043 31.3189 32.0011C30.2863 32.0011 29.5663 30.9797 29.9095 30.0057C31.3719 25.8752 32.0752 21.4852 31.972 17.0979C31.958 16.4867 31.2436 16.5732 31.1626 16.9305L29.876 23.182C29.7839 23.6285 29.3681 23.9439 28.9132 23.8881C28.4583 23.8434 28.1122 23.4611 28.1122 23.0034L28.0927 14.441C28.0927 14.1843 27.8806 13.975 27.6238 13.975C27.3866 13.975 27.1884 14.1536 27.1605 14.388L26.273 21.9959C26.22 22.448 25.8405 22.7857 25.3883 22.7857C25.3856 22.7857 25.3856 22.7857 25.3828 22.7857C24.9278 22.7829 24.5483 22.4368 24.5008 21.9847L23.591 13.1154C23.552 12.7247 22.8738 12.7302 22.8403 13.121L22.1705 20.9437C22.1342 21.3707 21.7965 21.7112 21.3695 21.7531C20.9481 21.8089 20.5462 21.5298 20.4262 21.1168L18.6763 15.1583C18.6233 14.9741 18.4503 14.8569 18.2577 14.8792C18.0428 14.9015 17.8921 15.0857 17.9088 15.3006L18.5759 23.4471C18.6093 23.8351 18.3833 24.2007 18.0205 24.3458C17.6577 24.4909 17.2418 24.3849 16.9962 24.0807L15.464 22.1913C15.1626 21.8201 14.6296 21.7335 14.2249 21.9959C13.8146 22.2582 13.6779 22.7857 13.9012 23.2183L16.7339 29.9219C17.1497 30.9099 16.4269 32.0011 15.3552 32.0011H10.9121C4.91738 32.0262 0.0361654 27.1925 -0.000115829 21.1977C-0.00848841 18.3231 1.1553 15.5685 3.22333 13.5703C4.68574 12.1162 6.53329 11.1143 8.5455 10.6817C8.87761 7.97461 10.1112 5.45725 12.0536 3.54272C16.8818 -1.17383 24.5902 -1.17941 29.4267 3.52877L29.5691 3.6711C35.5694 2.86454 41.4218 5.94565 44.1541 11.346C45.1895 13.3331 45.7253 15.5406 45.7198 17.7789Z" fill="white"/>
</g>
<defs>
<clipPath id="clip0_1_842">
<rect width="45.7199" height="32" fill="white"/>
</clipPath>
</defs>
</svg>
