<svg width="24" height="24" viewBox="0 0 24 24" fill="none" xmlns="http://www.w3.org/2000/svg">
<g clip-path="url(#clip0_1_852)">
<path d="M8.74402 21.0469C9.57245 21.0469 10.244 20.3753 10.244 19.5469C10.244 18.7184 9.57245 18.0469 8.74402 18.0469C7.91559 18.0469 7.24402 18.7184 7.24402 19.5469C7.24402 20.3753 7.91559 21.0469 8.74402 21.0469Z" fill="white"/>
<path d="M18.3621 21.0469C19.1905 21.0469 19.8621 20.3753 19.8621 19.5469C19.8621 18.7184 19.1905 18.0469 18.3621 18.0469C17.5336 18.0469 16.8621 18.7184 16.8621 19.5469C16.8621 20.3753 17.5336 21.0469 18.3621 21.0469Z" fill="white"/>
<path d="M21.83 8.86L20.38 12.97C20.1991 13.4841 19.8753 13.9359 19.4467 14.2724C19.018 14.609 18.5023 14.8163 17.96 14.87L10.01 15.64C9.91 15.65 9.81 15.65 9.71 15.65C9.11148 15.6476 8.52864 15.4584 8.04281 15.1089C7.55699 14.7593 7.19242 14.2667 7 13.7L4.39 6.03V6.02L3.72 4.19C3.64899 3.98914 3.51772 3.81509 3.34412 3.6916C3.17052 3.56811 2.96304 3.5012 2.75 3.5V2C3.27004 2.00087 3.77726 2.16154 4.20296 2.46025C4.62866 2.75895 4.95228 3.18127 5.13 3.67L5.63 5.03H19.12C19.5796 5.03005 20.0324 5.14032 20.4406 5.35155C20.8488 5.56278 21.2003 5.86881 21.4658 6.24397C21.7312 6.61913 21.9028 7.05248 21.9662 7.50766C22.0296 7.96285 21.9829 8.42659 21.83 8.86V8.86Z" fill="white"/>
</g>
<defs>
<clipPath id="clip0_1_852">
<rect width="24" height="24" fill="white"/>
</clipPath>
</defs>
</svg>
