<svg width="46" height="32" viewBox="0 0 46 32" fill="none" xmlns="http://www.w3.org/2000/svg">
<path d="M45.7199 17.7774C45.6613 25.6784 39.22 32.0415 31.3191 31.9997C30.2865 31.9997 29.5664 30.9782 29.9097 30.0042C31.3721 25.8737 32.0754 21.4837 31.9721 17.0965C31.9582 16.4853 31.2437 16.5718 31.1628 16.929L29.8762 23.1805C29.7841 23.6271 29.3683 23.9424 28.9134 23.8866C28.4584 23.842 28.1124 23.4596 28.1124 23.0019L28.0928 14.4396C28.0928 14.1828 27.8807 13.9735 27.624 13.9735C27.3868 13.9735 27.1886 14.1521 27.1607 14.3865L26.2732 21.9944C26.2202 22.4465 25.8406 22.7842 25.3885 22.7842C25.3857 22.7842 25.3857 22.7842 25.3829 22.7842C24.928 22.7814 24.5485 22.4354 24.501 21.9833L23.5912 13.1139C23.5521 12.7232 22.8739 12.7288 22.8404 13.1195L22.1706 20.9423C22.1344 21.3693 21.7967 21.7098 21.3697 21.7516C20.9482 21.8074 20.5464 21.5284 20.4264 21.1153L18.6765 15.1568C18.6235 14.9726 18.4504 14.8554 18.2579 14.8777C18.043 14.9001 17.8923 15.0843 17.909 15.2992L18.576 23.4457C18.6095 23.8336 18.3834 24.1992 18.0206 24.3443C17.6578 24.4895 17.242 24.3834 16.9964 24.0792L15.4642 22.1898C15.1628 21.8186 14.6297 21.7321 14.2251 21.9944C13.8148 22.2568 13.6781 22.7842 13.9013 23.2168L16.734 29.9205C17.1499 30.9084 16.427 31.9997 15.3554 31.9997H10.9123C4.91754 32.0248 0.0363261 27.191 4.48653e-05 21.1962C-0.00832772 18.3217 1.15546 15.5671 3.22349 13.5688C4.6859 12.1148 6.53345 11.1129 8.54566 10.6803C8.87777 7.97314 10.1113 5.45579 12.0538 3.54126C16.882 -1.1753 24.5903 -1.18088 29.4269 3.5273L29.5692 3.66964C35.5696 2.86308 41.422 5.94419 44.1543 11.3445C45.1897 13.3316 45.7255 15.5392 45.7199 17.7774Z" fill="white"/>
</svg>
