<svg width="34" height="64" viewBox="0 0 34 64" fill="none" xmlns="http://www.w3.org/2000/svg">
<path d="M16.9999 22.6313C15.9516 22.6313 14.9268 22.9422 14.0552 23.5246C13.1836 24.1069 12.5042 24.9347 12.103 25.9031C11.7019 26.8716 11.5969 27.9373 11.8014 28.9654C12.0059 29.9935 12.5107 30.9378 13.252 31.6791C13.9933 32.4203 14.9377 32.9251 15.9658 33.1296C16.994 33.3341 18.0597 33.2291 19.0282 32.828C19.9967 32.4268 20.8245 31.7475 21.4069 30.8759C21.9893 30.0043 22.3002 28.9796 22.3002 27.9314C22.3005 27.2353 22.1636 26.5459 21.8974 25.9028C21.6311 25.2596 21.2407 24.6752 20.7485 24.183C20.2562 23.6907 19.6718 23.3004 19.0286 23.0341C18.3854 22.7679 17.696 22.631 16.9999 22.6313Z" fill="#626262"/>
<path d="M9.64357 14.1298C14.4063 12.4643 19.5932 12.4643 24.3559 14.1298C24.1203 13.4767 23.8705 12.8236 23.6099 12.1776C21.8788 7.8793 19.6609 3.79347 16.9997 0C14.3385 3.79347 12.1207 7.8793 10.3895 12.1776C10.129 12.8236 9.87914 13.4767 9.64357 14.1298Z" fill="#999999"/>
<path d="M9.57578 56.091C9.6436 56.2873 9.71498 56.48 9.78637 56.6727C9.98707 57.2221 10.248 57.7476 10.5645 58.2395C13.5269 62.8579 20.4762 62.8579 23.4386 58.2395C23.7549 57.7469 24.0169 57.2216 24.2203 56.6727C24.2917 56.4764 24.3631 56.2837 24.4309 56.0874C19.6249 57.785 14.3826 57.7863 9.57578 56.091Z" fill="#999999"/>
<path d="M0.727987 50.623L0.767249 63.3253L1.92725 63.9998L1.89156 51.4404V51.3012L1.51679 51.0835L1.51322 51.0799L0.727987 50.623Z" fill="#505050"/>
<path d="M32.0763 63.6608L33.2363 62.9863L33.272 50.2876L33.2613 50.2947L32.112 50.9621V51.4404L32.0763 63.6608Z" fill="#505050"/>
<path d="M24.1778 54.6241L24.7274 55.2522L25.2057 55.7983L32.0765 63.6609L32.1122 51.4405V50.9623L27.2116 45.3553L24.2135 41.9219L24.1778 54.6241Z" fill="#999999"/>
<path d="M9.6438 14.1295C14.4065 12.464 19.5934 12.464 24.3561 14.1295C26.7733 20.7683 28.0091 27.7791 28.0074 34.8443V35.5723C28.0077 38.2712 27.8276 40.9671 27.4685 43.6419L25.3726 41.2475L24.2126 41.922L24.177 54.6242L24.7266 55.2524C24.6302 55.5308 24.5339 55.8092 24.4304 56.0876C19.6244 57.7852 14.3821 57.7864 9.57527 56.0911C9.50032 55.8913 9.4325 55.6914 9.36469 55.4915L9.82868 54.9597L9.79299 42.2611L8.62943 41.5865L6.57712 43.935C6.18939 41.1644 5.995 38.3702 5.99534 35.5727V34.8446C5.99443 27.7797 7.22918 20.7691 9.6438 14.1295ZM17 33.2311C18.0484 33.2318 19.0735 32.9215 19.9456 32.3396C20.8177 31.7576 21.4976 30.9301 21.8993 29.9617C22.3011 28.9933 22.4065 27.9276 22.2024 26.8992C21.9983 25.8709 21.4938 24.9262 20.7527 24.1846C20.0116 23.443 19.0671 22.9379 18.0389 22.7331C17.0106 22.5283 15.9447 22.6331 14.976 23.0341C14.0073 23.4351 13.1793 24.1144 12.5967 24.9861C12.0142 25.8578 11.7032 26.8826 11.7032 27.931C11.7034 29.336 12.2614 30.6834 13.2546 31.6772C14.2478 32.671 15.5949 33.2299 17 33.2311Z" fill="#E3E3E3"/>
<path d="M24.2133 41.9218L27.2114 45.3552L32.112 50.9621L33.2613 50.2947C33.2648 50.2912 33.2684 50.2876 33.2684 50.284L27.4684 43.642L25.3726 41.2476L24.2133 41.9218Z" fill="#E3E3E3"/>
<path d="M1.89136 51.3011V51.4403L1.92705 63.9998L9.0191 55.8838L9.36531 55.4912L9.82932 54.9594L9.79362 42.2607L6.83831 45.6406L1.89136 51.3011Z" fill="#999999"/>
<path d="M0.885135 50.4448C1.08858 50.6625 1.29917 50.8731 1.51332 51.0801L1.51689 51.0837L1.89166 51.3014L6.8386 45.6409L9.79391 42.261L8.63035 41.5864L6.57805 43.9349L0.885135 50.4448Z" fill="#E3E3E3"/>
</svg>
