<svg width="470" height="444" viewBox="0 0 470 444" fill="none" xmlns="http://www.w3.org/2000/svg">
<path d="M117.837 33.8887V99.2456C94.1454 103.13 71.7011 110.21 52.5068 120.483V55.127C71.7031 44.8614 94.1454 37.7816 117.837 33.8887Z" fill="white" fill-opacity="0.2"/>
<path d="M324.776 342.612V357.308C324.198 361.59 323.145 365.794 321.636 369.842C315.323 386.894 300.792 403.109 278.025 416.368C214.739 453.211 111.801 453.211 48.1016 416.368C24.9133 402.956 10.1138 386.506 3.73696 369.234C1.35056 362.877 0.119345 356.144 0.101562 349.353C0.101562 331.496 8.78316 313.647 26.171 298.13C32.7034 292.373 39.7979 287.289 47.3474 282.956C110.633 246.112 213.579 246.112 277.279 282.948C279.097 283.997 280.863 285.067 282.577 286.158C307.98 302.274 322.057 322.244 324.776 342.612Z" fill="#212121"/>
<path d="M324.776 306.959V321.655C324.198 325.937 323.145 330.141 321.636 334.188C315.323 351.24 300.792 367.456 278.025 380.715C214.739 417.558 111.801 417.558 48.1016 380.715C24.9133 367.303 10.1138 350.852 3.73696 333.581C1.35056 327.224 0.119345 320.491 0.101562 313.699C0.101562 295.842 8.78316 277.994 26.171 262.477C32.7034 256.72 39.7979 251.636 47.3474 247.303C110.633 210.459 213.579 210.459 277.279 247.295C279.097 248.344 280.863 249.414 282.577 250.505C307.98 266.62 322.057 286.591 324.776 306.959Z" fill="#292929"/>
<path d="M261.61 50.0878V115.257C240.54 105.837 216.434 99.8173 191.485 97.1976V32.0281C216.434 34.6447 240.54 40.6673 261.61 50.0878Z" fill="white" fill-opacity="0.2"/>
<path d="M324.776 277.131V291.827C324.198 296.109 323.145 300.313 321.636 304.361C315.323 321.413 300.792 337.628 278.025 350.887C214.739 387.73 111.801 387.73 48.1016 350.887C24.9133 337.475 10.1138 321.025 3.73696 303.753C1.35056 297.396 0.119345 290.663 0.101562 283.872C0.101562 266.015 8.78316 248.166 26.171 232.65C32.7034 226.892 39.7979 221.808 47.3474 217.475C110.633 180.631 213.579 180.631 277.279 217.467C279.097 218.516 280.863 219.586 282.577 220.677C307.98 236.793 322.057 256.763 324.776 277.131Z" fill="#323232"/>
<g filter="url(#filter0_f_1_467)">
<path d="M200 282.459V285.887C199.866 286.886 199.623 287.867 199.275 288.811C197.816 292.789 194.46 296.572 189.2 299.665C174.581 308.26 150.803 308.26 136.088 299.665C130.732 296.536 127.313 292.699 125.84 288.669C125.289 287.186 125.004 285.616 125 284.031C125 279.865 127.005 275.702 131.022 272.082C132.531 270.739 134.17 269.553 135.914 268.542C150.533 259.947 174.313 259.947 189.028 268.54C189.448 268.785 189.856 269.034 190.252 269.289C196.12 273.048 199.372 277.707 200 282.459Z" fill="#212121" fill-opacity="0.5"/>
</g>
<path d="M155.425 77.652C156.659 78.3789 157.789 79.2669 158.786 80.2925L210.402 132.53C214.227 136.401 216.686 142.127 216.444 146.676C214.067 191.571 192.185 219.281 160.113 224.516C158.323 224.703 156.523 224.275 155.012 223.302C153.024 222.101 151.293 220.522 149.918 218.655C117.983 176.619 96.3278 123.877 94.2133 76.3994C93.9968 71.5879 96.4822 68.7031 100.316 69.2349L152.059 76.4217C153.25 76.6145 154.392 77.0322 155.425 77.652Z" fill="#60DF95"/>
<path d="M230.489 137.917C230.489 137.885 230.489 137.853 230.489 137.82C230.489 137.787 230.489 137.756 230.489 137.722C230.485 137.576 230.478 137.428 230.469 137.279C230.464 137.196 230.456 137.112 230.448 137.029C230.448 136.996 230.443 136.962 230.441 136.928C230.438 136.894 230.436 136.863 230.433 136.83C230.418 136.678 230.401 136.526 230.382 136.373C230.371 136.29 230.359 136.206 230.346 136.122C230.341 136.087 230.337 136.05 230.331 136.017C230.325 135.984 230.322 135.945 230.316 135.91C230.291 135.752 230.264 135.592 230.233 135.433C230.22 135.358 230.202 135.281 230.187 135.206C230.179 135.165 230.171 135.124 230.163 135.083C230.154 135.043 230.145 134.993 230.135 134.948C230.1 134.783 230.063 134.619 230.02 134.454C230.005 134.393 229.988 134.332 229.972 134.271C229.961 134.227 229.949 134.183 229.937 134.138C229.92 134.077 229.906 134.016 229.889 133.955C229.841 133.789 229.793 133.624 229.745 133.458C229.73 133.412 229.715 133.367 229.701 133.321C229.687 133.276 229.674 133.239 229.661 133.198C229.636 133.121 229.613 133.044 229.59 132.967C229.536 132.808 229.481 132.65 229.423 132.492C229.409 132.452 229.394 132.413 229.379 132.374L229.338 132.265C229.308 132.185 229.279 132.105 229.249 132.025C229.19 131.875 229.129 131.725 229.067 131.575C229.049 131.53 229.028 131.485 229.01 131.441C228.991 131.396 228.979 131.369 228.964 131.334C228.933 131.262 228.905 131.194 228.874 131.124C228.808 130.974 228.739 130.824 228.669 130.674C228.646 130.624 228.62 130.574 228.597 130.523L228.535 130.395C228.5 130.323 228.467 130.251 228.432 130.179C228.336 129.99 228.24 129.803 228.144 129.617C228.138 129.605 228.13 129.592 228.123 129.579C228.069 129.479 228.012 129.382 227.957 129.282C227.863 129.114 227.772 128.944 227.674 128.778C227.664 128.76 227.652 128.743 227.641 128.725C227.428 128.366 227.205 128.013 226.972 127.666C226.956 127.641 226.941 127.615 226.925 127.594C226.832 127.455 226.733 127.321 226.637 127.185C226.565 127.08 226.493 126.974 226.414 126.869C226.4 126.85 226.387 126.83 226.372 126.81C226.239 126.63 226.103 126.45 225.965 126.276C225.933 126.235 225.899 126.196 225.867 126.155C225.834 126.114 225.801 126.073 225.767 126.032C225.711 125.96 225.655 125.888 225.597 125.822C225.479 125.678 225.358 125.538 225.237 125.399L225.186 125.342C225.161 125.314 225.137 125.288 225.114 125.26C225.032 125.169 224.95 125.077 224.867 124.987C224.74 124.85 224.611 124.715 224.48 124.582L224.464 124.565L173.002 72.269C172.876 72.1409 172.748 72.015 172.62 71.8927C172.482 71.7593 172.343 71.6296 172.202 71.5034L172.189 71.4926L172.165 71.4711C172.037 71.3559 171.907 71.243 171.778 71.1336C171.648 71.0243 171.497 70.8998 171.355 70.7883H171.351L171.342 70.7818C171.207 70.676 171.074 70.5731 170.938 70.4746C170.803 70.376 170.667 70.2782 170.53 70.1868L170.511 70.1738L170.482 70.1551C170.366 70.0753 170.249 69.9976 170.132 69.9235C170.002 69.841 169.871 69.7611 169.741 69.6839L169.651 69.6321C169.553 69.5745 169.454 69.5198 169.356 69.4659L169.284 69.4299L169.118 69.3436C169.069 69.3191 169.021 69.2925 168.974 69.2716L168.877 69.2263C168.821 69.199 168.765 69.1731 168.709 69.1472C168.671 69.1292 168.633 69.1105 168.595 69.0932C168.557 69.0759 168.513 69.0587 168.472 69.0407L168.304 68.9687C168.275 68.9572 168.246 68.9435 168.217 68.932C168.166 68.9119 168.116 68.8939 168.065 68.8752C168.015 68.8565 167.955 68.8327 167.9 68.8126L167.838 68.7896C167.777 68.768 167.717 68.75 167.657 68.7299C167.596 68.7097 167.55 68.6939 167.497 68.6781C167.483 68.6737 167.47 68.668 167.455 68.6644C167.383 68.6428 167.318 68.6255 167.249 68.6068C167.197 68.5924 167.145 68.5773 167.094 68.5644L167.067 68.5572C166.995 68.5385 166.924 68.5241 166.852 68.5083C166.798 68.4967 166.744 68.4831 166.69 68.4723L166.673 68.4687C166.547 68.4442 166.422 68.4234 166.298 68.4054L114.719 61.2106H114.693C114.549 61.191 114.405 61.1763 114.261 61.1667H114.251C114.189 61.1667 114.13 61.1667 114.069 61.161C113.982 61.161 113.894 61.1523 113.809 61.1523H113.796C113.637 61.1523 113.482 61.1603 113.33 61.1746H113.325C113.314 61.1746 113.304 61.1746 113.294 61.179C113.138 61.1943 112.985 61.2164 112.836 61.2452C112.82 61.2452 112.802 61.2488 112.785 61.2524C112.768 61.2559 112.738 61.266 112.713 61.2718C112.536 61.3097 112.362 61.3578 112.191 61.4157C112.175 61.4214 112.157 61.4236 112.141 61.4293L112.12 61.4373C112.032 61.4689 111.946 61.5092 111.86 61.5423C111.817 61.561 111.773 61.5761 111.731 61.5955C111.605 61.6545 111.482 61.7179 111.361 61.7876L97.207 69.999C97.3264 69.9271 97.4502 69.8652 97.5768 69.8069C97.6178 69.7875 97.6617 69.7724 97.7041 69.7544C97.7904 69.7177 97.8768 69.6824 97.966 69.6486C97.989 69.6407 98.0127 69.635 98.0379 69.627C98.2092 69.5695 98.3836 69.5215 98.5602 69.4831C98.6012 69.4745 98.6415 69.4644 98.6825 69.4572C98.8321 69.4285 98.9846 69.4064 99.14 69.3911L99.176 69.386C99.3285 69.3726 99.4838 69.3654 99.6421 69.3644C99.7306 69.3644 99.8212 69.3687 99.9112 69.3723C99.9737 69.3723 100.035 69.3723 100.097 69.3781C100.25 69.3891 100.406 69.4052 100.564 69.4263L152.143 76.6211C152.273 76.6398 152.403 76.6621 152.535 76.688C152.588 76.6988 152.642 76.7117 152.695 76.7239C152.777 76.7419 152.858 76.7592 152.94 76.7793L153.094 76.8225C153.177 76.8448 153.26 76.8678 153.343 76.8945C153.396 76.911 153.45 76.9297 153.503 76.947C153.584 76.9736 153.665 77.0002 153.746 77.0297C153.801 77.0491 153.856 77.0707 153.911 77.0916C153.991 77.1218 154.071 77.1535 154.15 77.1858C154.206 77.2089 154.262 77.2326 154.317 77.2578C154.396 77.2923 154.476 77.3297 154.555 77.3643C154.611 77.3902 154.668 77.4161 154.724 77.4434C154.804 77.4823 154.884 77.5226 154.965 77.5636C155.02 77.5923 155.075 77.6197 155.13 77.6492C155.252 77.7147 155.375 77.7809 155.497 77.8514C155.774 78.0116 156.051 78.1859 156.328 78.3744L156.357 78.3938C156.635 78.5857 156.912 78.7891 157.188 79.004L157.195 79.0104C157.469 79.2263 157.741 79.4551 158.01 79.6961L158.035 79.7184C158.308 79.9645 158.579 80.2232 158.847 80.4947L210.299 132.79C210.52 133.015 210.736 133.247 210.946 133.485C210.971 133.513 210.996 133.539 211.018 133.568C211.217 133.792 211.411 134.023 211.601 134.257L211.7 134.38C211.887 134.613 212.069 134.852 212.247 135.094C212.323 135.198 212.396 135.305 212.47 135.41C212.584 135.57 212.696 135.73 212.806 135.894C213.038 136.24 213.26 136.594 213.473 136.953C213.583 137.137 213.689 137.323 213.789 137.51C213.845 137.609 213.903 137.707 213.957 137.807C214.101 138.076 214.239 138.347 214.37 138.62C214.391 138.663 214.412 138.705 214.432 138.748C214.561 139.018 214.684 139.288 214.8 139.559L214.845 139.665C214.961 139.939 215.071 140.215 215.175 140.49C215.188 140.526 215.202 140.562 215.215 140.599C215.317 140.873 215.411 141.148 215.499 141.423C215.512 141.464 215.526 141.505 215.539 141.546C215.625 141.819 215.704 142.091 215.776 142.364L215.811 142.495C215.881 142.767 215.945 143.038 216.001 143.308C216.01 143.349 216.018 143.39 216.026 143.431C216.081 143.703 216.129 143.973 216.17 144.242L216.185 144.348C216.224 144.619 216.256 144.887 216.28 145.154C216.28 145.187 216.285 145.22 216.288 145.254C216.309 145.52 216.324 145.783 216.329 146.045C216.329 146.079 216.329 146.112 216.329 146.145C216.329 146.418 216.329 146.689 216.316 146.954C216.265 147.91 216.203 148.854 216.135 149.795C216.118 150.026 216.101 150.258 216.083 150.489C216.036 151.106 215.981 151.716 215.926 152.327C215.885 152.777 215.846 153.229 215.801 153.676C215.744 154.244 215.68 154.806 215.617 155.368C215.568 155.799 215.521 156.231 215.469 156.663C215.405 157.186 215.333 157.702 215.263 158.22C215.198 158.701 215.136 159.184 215.066 159.659C214.991 160.171 214.909 160.676 214.827 161.182C214.755 161.652 214.683 162.124 214.601 162.589C214.529 163.028 214.443 163.46 214.364 163.895C214.262 164.451 214.161 165.009 214.053 165.558C213.967 165.995 213.874 166.425 213.783 166.858C213.671 167.392 213.56 167.926 213.442 168.453C213.353 168.848 213.259 169.236 213.166 169.627C213.022 170.237 212.878 170.846 212.723 171.446C212.622 171.843 212.518 172.238 212.413 172.628C212.258 173.21 212.098 173.787 211.935 174.36C211.792 174.869 211.648 175.377 211.494 175.878C211.446 176.034 211.4 176.19 211.35 176.345C211.118 177.1 210.878 177.848 210.63 178.587C210.58 178.739 210.528 178.889 210.477 179.04C210.245 179.72 210.007 180.395 209.764 181.062C209.729 181.156 209.696 181.252 209.661 181.35C209.387 182.092 209.105 182.826 208.814 183.549C208.738 183.741 208.659 183.929 208.582 184.119C208.358 184.668 208.13 185.211 207.898 185.75C207.806 185.965 207.714 186.176 207.621 186.386C207.344 187.015 207.061 187.637 206.772 188.252C206.737 188.324 206.701 188.402 206.668 188.477C206.316 189.221 205.954 189.955 205.583 190.678C205.511 190.815 205.439 190.947 205.368 191.083C205.065 191.664 204.761 192.243 204.447 192.81C204.309 193.062 204.16 193.308 204.021 193.558C203.77 194.001 203.517 194.445 203.261 194.88C203.096 195.157 202.927 195.427 202.758 195.701C202.512 196.104 202.266 196.508 202.014 196.903C201.885 197.105 201.753 197.302 201.622 197.502C201.346 197.925 201.068 198.345 200.785 198.759C200.634 198.981 200.481 199.2 200.328 199.419C200.051 199.813 199.772 200.203 199.49 200.589C199.337 200.798 199.185 201.007 199.031 201.213C198.712 201.638 198.389 202.057 198.062 202.47C197.943 202.622 197.826 202.777 197.703 202.927C197.255 203.485 196.801 204.034 196.34 204.573C196.245 204.684 196.147 204.789 196.052 204.901C195.682 205.328 195.309 205.749 194.93 206.163C194.766 206.342 194.6 206.517 194.434 206.694C194.114 207.036 193.79 207.374 193.464 207.708C193.284 207.891 193.104 208.073 192.922 208.255C192.591 208.584 192.257 208.909 191.919 209.23C191.748 209.393 191.576 209.558 191.403 209.719C190.99 210.103 190.572 210.48 190.148 210.851C190.051 210.937 189.956 211.025 189.861 211.11C189.34 211.562 188.812 212.004 188.278 212.435C188.129 212.555 187.977 212.67 187.828 212.789C187.438 213.099 187.045 213.404 186.648 213.703C186.452 213.847 186.254 213.995 186.057 214.14C185.694 214.406 185.328 214.668 184.959 214.926C184.754 215.07 184.55 215.214 184.342 215.352C183.954 215.616 183.562 215.875 183.168 216.128C182.985 216.246 182.808 216.366 182.62 216.482C182.045 216.842 181.463 217.201 180.874 217.542L195.03 209.314C195.619 208.972 196.2 208.617 196.777 208.254C196.96 208.138 197.141 208.018 197.323 207.901C197.718 207.646 198.11 207.389 198.499 207.124C198.705 206.984 198.911 206.842 199.115 206.699C199.484 206.441 199.849 206.179 200.213 205.913C200.41 205.769 200.608 205.625 200.804 205.475C201.202 205.177 201.595 204.87 201.985 204.56C202.134 204.442 202.285 204.327 202.433 204.207C202.967 203.775 203.495 203.334 204.016 202.883C204.114 202.798 204.21 202.708 204.308 202.622C204.73 202.252 205.148 201.875 205.561 201.491C205.734 201.33 205.905 201.165 206.077 201.002C206.413 200.681 206.747 200.356 207.08 200.028C207.261 199.846 207.442 199.664 207.622 199.479C207.949 199.146 208.272 198.809 208.592 198.466C208.757 198.289 208.924 198.114 209.088 197.935C209.466 197.521 209.84 197.101 210.21 196.674C210.305 196.563 210.403 196.458 210.497 196.345C210.959 195.806 211.413 195.257 211.859 194.699C211.98 194.549 212.097 194.394 212.219 194.243C212.545 193.828 212.866 193.41 213.187 192.985C213.342 192.779 213.494 192.57 213.646 192.362C213.929 191.975 214.209 191.585 214.485 191.191C214.638 190.972 214.79 190.753 214.942 190.532C215.225 190.118 215.503 189.697 215.78 189.274C215.91 189.074 216.042 188.877 216.17 188.676C216.216 188.604 216.262 188.538 216.307 188.466C216.513 188.14 216.712 187.804 216.915 187.473C217.082 187.199 217.252 186.93 217.418 186.653C217.677 186.221 217.928 185.772 218.18 185.328C218.323 185.079 218.467 184.834 218.605 184.583C218.919 184.012 219.225 183.431 219.528 182.847C219.6 182.713 219.672 182.585 219.739 182.45C220.101 181.744 220.455 181.027 220.8 180.301C220.808 180.284 220.816 180.266 220.825 180.248C220.86 180.177 220.893 180.098 220.928 180.024C221.216 179.409 221.499 178.786 221.778 178.153C221.871 177.943 221.963 177.732 222.053 177.52C222.286 176.981 222.514 176.436 222.738 175.886C222.816 175.696 222.894 175.509 222.971 175.319C223.244 174.634 223.511 173.942 223.773 173.243C223.788 173.202 223.802 173.16 223.817 173.118C223.852 173.025 223.885 172.93 223.919 172.836C224.164 172.168 224.401 171.493 224.633 170.81C224.684 170.661 224.736 170.511 224.786 170.361C225.034 169.621 225.274 168.872 225.506 168.116C225.553 167.962 225.598 167.807 225.645 167.653C225.734 167.359 225.825 167.067 225.911 166.771C225.973 166.56 226.028 166.342 226.088 166.131C226.251 165.559 226.41 164.984 226.565 164.404C226.67 164.011 226.775 163.617 226.876 163.219C227.029 162.62 227.175 162.013 227.318 161.404C227.382 161.136 227.452 160.874 227.513 160.605C227.541 160.48 227.566 160.351 227.594 160.227C227.712 159.701 227.823 159.169 227.935 158.636C228.026 158.204 228.119 157.773 228.205 157.331C228.314 156.784 228.414 156.229 228.515 155.676C228.579 155.327 228.649 154.983 228.71 154.63C228.726 154.542 228.738 154.452 228.754 154.363C228.833 153.9 228.905 153.428 228.979 152.961C229.06 152.454 229.143 151.948 229.218 151.435C229.29 150.96 229.351 150.478 229.415 149.996C229.471 149.584 229.533 149.177 229.584 148.761C229.598 148.653 229.609 148.545 229.622 148.433C229.674 148.007 229.72 147.576 229.766 147.146C229.83 146.582 229.894 146.019 229.951 145.448C229.995 145.004 230.035 144.553 230.075 144.104C230.11 143.716 230.147 143.332 230.182 142.941C230.201 142.716 230.216 142.487 230.233 142.26C230.251 142.034 230.268 141.8 230.284 141.57C230.353 140.63 230.415 139.684 230.466 138.728C230.466 138.687 230.47 138.646 230.471 138.605C230.478 138.461 230.481 138.312 230.482 138.164C230.493 138.081 230.491 137.999 230.489 137.917Z" fill="#27AE60"/>
<path d="M181.874 151.072C181.874 150.99 181.865 150.909 181.862 150.827C181.856 150.669 181.848 150.511 181.84 150.353C181.831 150.172 181.826 149.994 181.814 149.81C181.804 149.651 181.788 149.492 181.777 149.333C181.765 149.174 181.751 148.994 181.736 148.824C181.727 148.721 181.722 148.619 181.712 148.515C181.687 148.251 181.654 147.985 181.624 147.719C181.608 147.587 181.596 147.457 181.58 147.325C181.575 147.287 181.571 147.248 181.567 147.209C181.511 146.764 181.447 146.318 181.376 145.871C181.376 145.853 181.37 145.835 181.367 145.817C181.352 145.721 181.333 145.625 181.317 145.53C181.262 145.195 181.207 144.86 181.144 144.525C181.13 144.453 181.112 144.375 181.098 144.3C181.063 144.118 181.026 143.935 180.987 143.753C180.945 143.547 180.907 143.342 180.862 143.135C180.834 143.006 180.801 142.878 180.773 142.749C180.728 142.553 180.682 142.358 180.636 142.162C180.602 142.018 180.572 141.88 180.537 141.738C180.491 141.551 180.438 141.363 180.39 141.176C180.342 140.989 180.29 140.787 180.236 140.592C180.212 140.502 180.191 140.413 180.165 140.324C180.093 140.056 180.009 139.79 179.931 139.524C179.884 139.362 179.839 139.201 179.788 139.039C179.776 138.997 179.764 138.956 179.752 138.915C179.609 138.455 179.462 137.996 179.311 137.538L179.3 137.507C179.277 137.438 179.252 137.37 179.229 137.301C179.102 136.927 178.974 136.552 178.838 136.179C178.814 136.107 178.786 136.042 178.761 135.974C178.704 135.817 178.644 135.661 178.586 135.505C178.506 135.294 178.43 135.083 178.348 134.874C178.293 134.73 178.233 134.586 178.176 134.443C178.109 134.273 178.041 134.103 177.972 133.934C177.923 133.814 177.878 133.695 177.829 133.575C177.725 133.323 177.614 133.072 177.508 132.823C177.452 132.693 177.397 132.563 177.341 132.434C177.321 132.389 177.303 132.345 177.284 132.301C177.093 131.87 176.897 131.44 176.698 131.012C176.689 130.993 176.679 130.974 176.67 130.955C176.61 130.827 176.546 130.699 176.485 130.571C176.331 130.248 176.178 129.925 176.019 129.606C175.993 129.554 175.964 129.503 175.939 129.451C175.804 129.182 175.664 128.916 175.525 128.649C175.415 128.434 175.31 128.219 175.195 128.008C175.174 127.969 175.15 127.931 175.129 127.892C174.759 127.201 174.377 126.517 173.982 125.841C173.949 125.784 173.919 125.725 173.886 125.669C173.787 125.5 173.682 125.334 173.581 125.166C173.411 124.883 173.241 124.6 173.068 124.32C172.917 124.078 172.765 123.839 172.611 123.602C172.435 123.325 172.257 123.051 172.078 122.778C172.017 122.685 171.959 122.591 171.898 122.499C171.837 122.407 171.781 122.336 171.725 122.253C171.237 121.529 170.739 120.812 170.22 120.112L170.214 120.102C170.167 120.04 170.118 119.979 170.07 119.916C169.748 119.485 169.422 119.057 169.092 118.631C169.074 118.607 169.055 118.581 169.036 118.559C168.783 118.237 168.523 117.92 168.265 117.604C168.186 117.508 168.109 117.409 168.029 117.313L168.012 117.292C167.674 116.884 167.332 116.483 166.985 116.088C166.971 116.071 166.956 116.055 166.941 116.04C166.842 115.926 166.74 115.817 166.64 115.704C166.411 115.448 166.182 115.19 165.95 114.938C165.911 114.896 165.871 114.857 165.832 114.815C165.683 114.655 165.531 114.499 165.38 114.341C165.207 114.159 165.036 113.974 164.861 113.796C164.802 113.736 164.742 113.679 164.683 113.619C164.518 113.452 164.351 113.289 164.181 113.124C164.033 112.981 163.887 112.829 163.738 112.685C163.66 112.614 163.58 112.542 163.502 112.47C163.322 112.298 163.139 112.13 162.957 111.962C162.827 111.842 162.699 111.718 162.568 111.603C162.474 111.518 162.378 111.438 162.281 111.354C162.099 111.192 161.916 111.032 161.732 110.873C161.616 110.773 161.501 110.668 161.384 110.569C161.267 110.47 161.152 110.381 161.036 110.282C160.856 110.133 160.676 109.986 160.495 109.84C160.396 109.76 160.3 109.677 160.2 109.598C160.057 109.484 159.907 109.376 159.762 109.263C159.593 109.133 159.425 109.003 159.255 108.876C159.183 108.82 159.107 108.761 159.033 108.707C158.839 108.563 158.644 108.43 158.449 108.291C158.301 108.185 158.153 108.076 158.004 107.974C157.961 107.944 157.918 107.912 157.875 107.882C157.535 107.648 157.192 107.424 156.849 107.202C156.818 107.182 156.787 107.161 156.756 107.141L156.746 107.135C156.373 106.895 155.998 106.665 155.62 106.443L155.399 106.314C155.116 106.151 154.835 105.993 154.554 105.841C154.448 105.783 154.339 105.732 154.235 105.676C154.092 105.599 153.949 105.524 153.802 105.45C153.69 105.394 153.577 105.331 153.466 105.277C153.287 105.187 153.107 105.108 152.933 105.024C152.804 104.964 152.675 104.901 152.547 104.842C152.495 104.818 152.442 104.792 152.39 104.77C152.036 104.611 151.683 104.462 151.333 104.321L151.322 104.317C150.963 104.174 150.607 104.039 150.254 103.914C150.208 103.899 150.163 103.886 150.117 103.87C149.988 103.825 149.862 103.786 149.733 103.744C149.553 103.685 149.371 103.621 149.191 103.566C149.101 103.539 149.013 103.518 148.923 103.494C148.767 103.449 148.611 103.407 148.455 103.365C148.335 103.333 148.213 103.293 148.097 103.265C147.981 103.237 147.847 103.211 147.723 103.182C147.566 103.145 147.41 103.11 147.255 103.078C147.174 103.061 147.09 103.038 147.008 103.023C146.865 102.994 146.721 102.976 146.574 102.951C146.394 102.92 146.215 102.888 146.035 102.862C145.972 102.853 145.908 102.839 145.845 102.83C145.696 102.811 145.552 102.802 145.405 102.786C145.214 102.764 145.021 102.742 144.832 102.727C144.777 102.722 144.719 102.714 144.664 102.709C144.535 102.701 144.41 102.703 144.282 102.697C144.055 102.686 143.828 102.676 143.605 102.675C143.543 102.675 143.478 102.668 143.416 102.669C143.319 102.669 143.225 102.68 143.129 102.682C142.847 102.688 142.568 102.701 142.291 102.722C142.208 102.728 142.122 102.726 142.039 102.734C141.924 102.745 141.811 102.761 141.697 102.774C141.61 102.784 141.523 102.793 141.437 102.805C141.124 102.847 140.813 102.895 140.505 102.956L140.477 102.963C140.393 102.98 140.313 103.003 140.23 103.022C139.977 103.078 139.728 103.137 139.479 103.206C139.358 103.241 139.241 103.282 139.12 103.319C138.963 103.369 138.802 103.413 138.647 103.468C138.608 103.482 138.571 103.501 138.532 103.515C138.293 103.603 138.06 103.701 137.829 103.802C137.716 103.851 137.601 103.894 137.49 103.946C137.151 104.105 136.819 104.276 136.497 104.464L132.508 106.786C132.83 106.598 133.162 106.427 133.501 106.268C133.612 106.216 133.727 106.173 133.84 106.125C134.071 106.023 134.304 105.925 134.543 105.837C134.736 105.766 134.934 105.703 135.131 105.641C135.25 105.604 135.367 105.563 135.49 105.529C135.736 105.457 135.992 105.4 136.242 105.344C136.325 105.325 136.405 105.302 136.489 105.285C136.802 105.221 137.122 105.17 137.445 105.127C137.531 105.116 137.618 105.106 137.705 105.096C137.901 105.074 138.1 105.059 138.3 105.044C138.576 105.023 138.855 105.011 139.137 105.004C139.295 105.001 139.454 104.996 139.613 104.997C139.837 104.997 140.064 105.009 140.29 105.019C140.474 105.028 140.656 105.035 140.841 105.049C141.026 105.063 141.223 105.087 141.414 105.108C141.623 105.131 141.832 105.154 142.043 105.184C142.222 105.21 142.402 105.242 142.582 105.273C142.808 105.312 143.035 105.353 143.264 105.4C143.419 105.432 143.575 105.468 143.731 105.504C143.975 105.56 144.221 105.621 144.468 105.687C144.623 105.729 144.779 105.771 144.936 105.816C145.205 105.895 145.475 105.979 145.746 106.069C145.874 106.111 146.001 106.15 146.129 106.194C146.528 106.332 146.931 106.481 147.336 106.642H147.341C147.743 106.804 148.148 106.98 148.559 107.166C148.687 107.225 148.816 107.288 148.945 107.348C149.231 107.485 149.521 107.627 149.814 107.775C149.958 107.848 150.101 107.923 150.244 107.999C150.631 108.203 151.018 108.412 151.408 108.638C151.863 108.902 152.316 109.177 152.765 109.465C152.797 109.485 152.827 109.507 152.858 109.526C153.246 109.775 153.631 110.033 154.014 110.298C154.163 110.401 154.311 110.509 154.459 110.615C154.729 110.806 154.997 111 155.264 111.2C155.434 111.327 155.602 111.457 155.772 111.587C156.017 111.778 156.262 111.97 156.505 112.161C156.686 112.305 156.867 112.452 157.045 112.604C157.279 112.797 157.51 112.993 157.742 113.192C157.925 113.351 158.108 113.511 158.29 113.672C158.517 113.873 158.741 114.078 158.966 114.285C159.148 114.453 159.33 114.621 159.51 114.792C159.738 115.008 159.964 115.229 160.188 115.451C160.355 115.614 160.522 115.778 160.69 115.945C160.925 116.182 161.157 116.424 161.389 116.668C161.539 116.825 161.69 116.981 161.839 117.14C162.113 117.434 162.383 117.734 162.651 118.035C162.75 118.146 162.851 118.25 162.948 118.365C163.316 118.782 163.678 119.207 164.037 119.639C164.114 119.732 164.189 119.829 164.266 119.922C164.547 120.265 164.825 120.609 165.1 120.96C165.431 121.382 165.757 121.81 166.078 122.244C166.126 122.31 166.177 122.374 166.226 122.441C166.741 123.141 167.239 123.858 167.731 124.582C167.849 124.757 167.968 124.931 168.084 125.106C168.264 125.379 168.442 125.654 168.617 125.931C168.77 126.171 168.923 126.41 169.074 126.649C169.246 126.929 169.417 127.21 169.586 127.493C169.721 127.719 169.857 127.944 169.988 128.17C170.384 128.848 170.766 129.531 171.135 130.22C171.27 130.472 171.4 130.723 171.531 130.978C171.669 131.245 171.81 131.511 171.945 131.779C172.131 132.153 172.314 132.528 172.493 132.905C172.553 133.031 172.616 133.157 172.676 133.283C172.907 133.774 173.13 134.267 173.347 134.762C173.403 134.892 173.457 135.022 173.513 135.152C173.672 135.521 173.827 135.891 173.978 136.261C174.05 136.43 174.116 136.6 174.183 136.77C174.323 137.123 174.459 137.477 174.592 137.83C174.651 137.987 174.711 138.143 174.768 138.299C174.93 138.742 175.085 139.184 175.235 139.627C175.258 139.699 175.284 139.764 175.307 139.832C175.478 140.343 175.64 140.854 175.795 141.366C175.843 141.526 175.888 141.685 175.934 141.844C176.039 142.203 176.141 142.562 176.24 142.922C176.292 143.115 176.342 143.309 176.392 143.502C176.477 143.832 176.56 144.161 176.639 144.49C176.687 144.686 176.732 144.882 176.775 145.077C176.851 145.412 176.918 145.746 176.99 146.082C177.027 146.265 177.066 146.447 177.101 146.63C177.18 147.041 177.253 147.451 177.321 147.86C177.336 147.957 177.355 148.053 177.37 148.148C177.45 148.652 177.522 149.154 177.585 149.655C177.602 149.787 177.614 149.918 177.629 150.049C177.671 150.419 177.71 150.787 177.742 151.154C177.757 151.324 177.77 151.494 177.782 151.663C177.808 152.005 177.829 152.345 177.846 152.684C177.854 152.842 177.862 152.999 177.868 153.157C177.885 153.634 177.898 154.109 177.897 154.58C177.897 155.076 177.883 155.562 177.86 156.041C177.855 156.178 177.844 156.31 177.836 156.445C177.817 156.773 177.795 157.099 177.764 157.418C177.748 157.604 177.727 157.787 177.708 157.97C177.678 158.241 177.647 158.51 177.611 158.775C177.584 158.97 177.554 159.163 177.524 159.355C177.485 159.598 177.444 159.839 177.399 160.078C177.359 160.293 177.317 160.505 177.272 160.714C177.227 160.924 177.179 161.136 177.128 161.351C177.069 161.597 177.006 161.84 176.939 162.079C176.888 162.267 176.835 162.453 176.778 162.637C176.691 162.924 176.596 163.203 176.499 163.48C176.446 163.63 176.395 163.783 176.339 163.929C176.163 164.394 175.975 164.847 175.771 165.28C175.612 165.617 175.447 165.946 175.269 166.264V166.27C175.092 166.59 174.906 166.899 174.714 167.199C174.674 167.261 174.633 167.319 174.592 167.379C174.445 167.602 174.293 167.819 174.137 168.031C174.074 168.115 174.01 168.199 173.945 168.283C173.796 168.474 173.643 168.661 173.487 168.843C173.428 168.915 173.37 168.987 173.31 169.051C173.095 169.292 172.875 169.524 172.647 169.746C172.615 169.777 172.581 169.806 172.548 169.837C172.35 170.026 172.147 170.208 171.939 170.383C171.863 170.446 171.786 170.507 171.709 170.569C171.531 170.713 171.349 170.851 171.164 170.983C171.088 171.038 171.013 171.093 170.936 171.146C170.678 171.323 170.416 171.493 170.148 171.649L174.137 169.327C174.405 169.17 174.667 169 174.925 168.824C175.002 168.771 175.078 168.716 175.154 168.66C175.339 168.527 175.52 168.389 175.698 168.247C175.775 168.185 175.852 168.124 175.928 168.06C176.136 167.885 176.34 167.701 176.539 167.514C176.571 167.483 176.605 167.455 176.636 167.424C176.864 167.202 177.084 166.969 177.298 166.729C177.359 166.661 177.417 166.59 177.477 166.521C177.633 166.339 177.786 166.152 177.935 165.96C177.999 165.877 178.063 165.793 178.126 165.708C178.283 165.497 178.434 165.28 178.581 165.057C178.622 164.997 178.664 164.939 178.703 164.877C178.715 164.859 178.728 164.842 178.739 164.824C178.919 164.541 179.092 164.249 179.258 163.947V163.941C179.426 163.637 179.586 163.324 179.738 163.003C179.745 162.988 179.751 162.973 179.757 162.958C179.961 162.527 180.149 162.072 180.326 161.607C180.341 161.567 180.36 161.531 180.375 161.49C180.415 161.383 180.447 161.267 180.485 161.159C180.582 160.882 180.677 160.602 180.765 160.314C180.788 160.238 180.816 160.166 180.836 160.089C180.868 159.981 180.892 159.866 180.922 159.757C180.989 159.518 181.052 159.275 181.112 159.028C181.137 158.927 181.166 158.832 181.19 158.73C181.214 158.629 181.234 158.504 181.257 158.393C181.302 158.182 181.345 157.971 181.385 157.755C181.406 157.645 181.431 157.54 181.451 157.428C181.473 157.299 181.489 157.164 181.51 157.033C181.54 156.84 181.57 156.648 181.596 156.453C181.61 156.353 181.628 156.257 181.64 156.157C181.661 155.99 181.674 155.816 181.693 155.647C181.712 155.464 181.733 155.282 181.75 155.096C181.756 155.024 181.766 154.953 181.773 154.876C181.793 154.629 181.804 154.373 181.819 154.123C181.827 153.988 181.838 153.855 181.844 153.719C181.844 153.685 181.849 153.654 181.85 153.62C181.868 153.199 181.878 152.77 181.88 152.334V152.258C181.888 151.862 181.886 151.467 181.874 151.072Z" fill="#D8D8D8"/>
<path d="M151.419 108.629C136.748 100.142 124.816 106.951 124.771 123.842C124.726 140.733 136.578 161.303 151.249 169.786C165.92 178.268 177.856 171.458 177.902 154.573C177.925 137.683 166.084 117.129 151.419 108.629ZM150.592 147.476C150.355 147.598 150.089 147.65 149.824 147.627C149.558 147.604 149.305 147.507 149.092 147.346C148.487 146.964 147.996 146.425 147.671 145.787L140.575 132.865L143.507 131.436L149.144 141.704L159.197 135.054L162.112 139.865L150.592 147.476Z" fill="white"/>
<path d="M162.111 139.86L150.592 147.471C150.355 147.593 150.089 147.646 149.824 147.623C149.558 147.6 149.305 147.502 149.092 147.341C148.487 146.959 147.997 146.42 147.672 145.782L140.575 132.86L143.508 131.431L149.145 141.7L159.197 135.049L162.111 139.86Z" fill="#60DF95"/>
<path d="M52.5037 193.782V259.463C52.1389 259.267 51.7731 259.073 51.4165 258.877C51.0919 258.707 50.7589 258.536 50.4425 258.362C49.4612 257.826 48.4953 257.282 47.5387 256.721C18.6538 240.017 2.80002 218.609 0 196.761L0.205503 124.358C0.290165 134.577 3.00353 144.601 8.08358 153.463C15.79 167.338 29.1705 180.392 48.2055 191.397C49.1645 191.95 50.1301 192.494 51.1021 193.03C51.4268 193.209 51.7515 193.38 52.0752 193.558C52.2191 193.634 52.3578 193.708 52.5037 193.782Z" fill="white" fill-opacity="0.2"/>
<path d="M324.877 132.302L324.715 190.473C324.715 190.953 324.708 191.424 324.691 191.904C324.683 192.034 324.675 192.172 324.667 192.301C324.659 192.713 324.634 193.125 324.61 193.529C324.586 193.886 324.569 194.245 324.537 194.594C324.513 195.005 324.464 195.423 324.423 195.829C324.39 196.187 324.359 196.536 324.321 196.894C324.271 197.306 324.206 197.718 324.15 198.129C324.101 198.479 324.052 198.828 323.996 199.178C323.931 199.6 323.849 200.015 323.769 200.438C323.719 200.706 323.679 200.983 323.63 201.25C323.61 201.322 323.594 201.396 323.582 201.47C323.492 201.881 323.395 202.293 323.305 202.705C323.224 203.045 323.152 203.387 323.07 203.734C322.967 204.146 322.851 204.564 322.738 204.986C322.649 205.319 322.559 205.661 322.462 205.995C322.34 206.417 322.203 206.848 322.072 207.27C321.97 207.595 321.867 207.92 321.764 208.246C321.618 208.692 321.456 209.132 321.293 209.57C321.191 209.855 321.107 210.131 321.002 210.416C320.993 210.44 320.977 210.465 320.969 210.497C320.726 211.139 320.466 211.781 320.198 212.423C320.15 212.537 320.109 212.651 320.069 212.764C319.744 213.521 319.411 214.268 319.063 215.024C318.96 215.251 318.836 215.479 318.73 215.707C318.478 216.222 318.226 216.747 317.959 217.268C317.813 217.56 317.651 217.844 317.497 218.138C317.261 218.593 317.018 219.048 316.766 219.503L316.669 219.673C316.555 219.884 316.418 220.085 316.304 220.299C316.004 220.814 315.704 221.329 315.395 221.835C315.208 222.136 315.021 222.429 314.835 222.73C314.535 223.209 314.227 223.681 313.918 224.152C313.712 224.461 313.507 224.77 313.293 225.07C312.978 225.542 312.653 226.005 312.32 226.468C312.11 226.769 311.891 227.07 311.662 227.371C311.314 227.85 310.949 228.322 310.583 228.801C310.429 229.006 310.283 229.207 310.129 229.411C310.04 229.514 309.951 229.622 309.861 229.736C309.748 229.882 309.626 230.029 309.505 230.183C309.074 230.711 308.636 231.239 308.19 231.768C308.109 231.865 308.036 231.963 307.947 232.06C307.433 232.662 306.908 233.263 306.373 233.857C306.243 234.003 306.106 234.149 305.975 234.295C305.504 234.816 305.017 235.336 304.537 235.847C304.434 235.95 304.349 236.043 304.252 236.141C303.692 236.734 303.108 237.319 302.516 237.904C302.378 238.042 302.232 238.181 302.086 238.327C301.567 238.831 301.04 239.335 300.503 239.839C300.401 239.936 300.298 240.034 300.187 240.14C300.139 240.18 300.098 240.229 300.049 240.269C299.766 240.53 299.473 240.784 299.181 241.041C298.77 241.415 298.369 241.782 297.956 242.147C297.615 242.448 297.267 242.74 296.917 243.033C296.506 243.39 296.09 243.749 295.66 244.106C295.303 244.406 294.94 244.699 294.573 244.992C294.143 245.341 293.712 245.691 293.275 246.04C292.894 246.333 292.504 246.634 292.122 246.926C291.684 247.268 291.238 247.609 290.786 247.942C290.388 248.243 289.984 248.535 289.578 248.828C289.124 249.161 288.669 249.486 288.206 249.82C287.795 250.112 287.371 250.405 286.948 250.689C286.478 251.015 286.008 251.34 285.529 251.665C285.099 251.958 284.661 252.242 284.23 252.527C283.743 252.843 283.257 253.168 282.762 253.477C282.316 253.77 281.861 254.046 281.407 254.33C280.904 254.639 280.409 254.956 279.898 255.266C279.752 255.354 279.606 255.444 279.451 255.542C278.803 255.932 278.137 256.322 277.472 256.712C276.255 257.42 275.024 258.113 273.78 258.793C273.423 258.988 273.061 259.175 272.702 259.37C271.736 259.89 270.77 260.399 269.789 260.898C269.456 261.068 269.131 261.239 268.799 261.413C267.525 262.047 266.243 262.681 264.945 263.291L264.264 263.608C263.167 264.12 262.064 264.624 260.953 265.12C260.555 265.291 260.157 265.46 259.76 265.634C259.712 265.659 259.657 265.676 259.606 265.699V200.657C259.882 200.543 260.149 200.43 260.428 200.307C260.825 200.137 261.223 199.967 261.612 199.788C262.724 199.3 263.827 198.798 264.922 198.284C265.149 198.181 265.385 198.073 265.612 197.967C266.913 197.349 268.195 196.721 269.458 196.081C269.791 195.918 270.124 195.74 270.455 195.578C271.43 195.073 272.408 194.562 273.368 194.049L274.44 193.464C275.69 192.789 276.92 192.098 278.131 191.391C278.959 190.912 279.762 190.424 280.565 189.937C281.079 189.628 281.571 189.319 282.075 189.01C282.529 188.726 282.983 188.442 283.43 188.157C283.924 187.84 284.403 187.523 284.89 187.207C285.328 186.914 285.767 186.63 286.196 186.345C286.675 186.02 287.146 185.695 287.616 185.37C288.038 185.077 288.46 184.784 288.866 184.5C289.336 184.166 289.79 183.834 290.245 183.5C290.65 183.208 291.056 182.915 291.446 182.622C291.9 182.281 292.339 181.94 292.782 181.606C293.163 181.306 293.552 181.013 293.925 180.712C294.371 180.371 294.793 180.021 295.224 179.672C295.589 179.379 295.962 179.078 296.319 178.786C296.749 178.429 297.163 178.071 297.577 177.713C297.925 177.413 298.275 177.119 298.615 176.827L299.848 175.713C300.181 175.413 300.514 175.12 300.838 174.812C300.951 174.714 301.057 174.606 301.171 174.511C301.698 174.007 302.226 173.502 302.744 172.999C302.883 172.861 303.029 172.722 303.175 172.576C303.767 172 304.343 171.406 304.912 170.821C305.008 170.723 305.098 170.625 305.187 170.528C305.682 170.013 306.169 169.488 306.64 168.967C306.769 168.829 306.907 168.683 307.038 168.537C307.573 167.943 308.1 167.342 308.611 166.741L308.854 166.448C309.301 165.919 309.739 165.391 310.169 164.855C310.291 164.709 310.405 164.563 310.526 164.408C310.769 164.099 311.005 163.782 311.245 163.473C311.61 163.002 311.975 162.522 312.324 162.051C312.551 161.75 312.762 161.441 312.982 161.14C313.313 160.677 313.638 160.214 313.955 159.75C314.16 159.442 314.377 159.133 314.58 158.824C314.888 158.353 315.196 157.881 315.489 157.41C315.683 157.109 315.869 156.809 316.056 156.507C316.364 155.996 316.665 155.484 316.957 154.971C317.111 154.711 317.274 154.443 317.42 154.174C317.679 153.719 317.914 153.265 318.157 152.818C318.312 152.524 318.474 152.232 318.62 151.94C318.888 151.419 319.14 150.899 319.39 150.379C319.493 150.152 319.619 149.924 319.723 149.696C320.073 148.948 320.405 148.193 320.722 147.436C320.77 147.323 320.811 147.209 320.86 147.096C321.127 146.453 321.387 145.811 321.63 145.169C321.744 144.86 321.849 144.551 321.955 144.242C322.118 143.804 322.272 143.365 322.418 142.926C322.531 142.601 322.623 142.267 322.734 141.942C322.864 141.52 323.001 141.097 323.123 140.675C323.22 140.333 323.301 139.999 323.399 139.659C323.502 139.247 323.626 138.829 323.724 138.407C323.813 138.065 323.886 137.724 323.967 137.378C324.056 136.966 324.154 136.554 324.234 136.142C324.308 135.802 324.365 135.46 324.429 135.113C324.511 134.701 324.584 134.275 324.657 133.861C324.713 133.511 324.759 133.163 324.811 132.813C324.837 132.634 324.861 132.476 324.877 132.302Z" fill="white" fill-opacity="0.2"/>
<path d="M199.596 217.596V282.856L199.109 282.906C198.882 282.929 198.663 282.962 198.436 282.987C198.362 282.987 198.289 282.995 198.216 283.002C196.821 283.141 195.425 283.271 194.022 283.385C193.786 283.409 193.551 283.425 193.307 283.442C192.139 283.545 190.971 283.621 189.803 283.702L188.334 283.799C187.409 283.857 186.485 283.913 185.56 283.962L183.921 284.035C183.037 284.076 182.161 284.116 181.284 284.149C180.993 284.157 180.7 284.174 180.4 284.189C180.116 284.197 179.831 284.197 179.54 284.214C178.802 284.23 178.063 284.254 177.317 284.271C176.708 284.287 176.108 284.295 175.499 284.312L173.26 284.335C172.659 284.344 172.059 284.344 171.459 284.344C170.704 284.352 169.941 284.344 169.187 284.344C168.594 284.335 168.002 284.335 167.41 284.328C166.639 284.32 165.868 284.303 165.089 284.287C164.644 284.279 164.197 284.279 163.754 284.262C163.624 284.262 163.502 284.254 163.372 284.254L161.23 284.181C160.63 284.166 160.022 284.149 159.413 284.124C158.694 284.092 157.969 284.051 157.246 284.021C156.654 283.998 156.063 283.973 155.461 283.941C154.732 283.9 153.993 283.852 153.263 283.802C152.679 283.77 152.102 283.737 151.516 283.699L149.244 283.528C148.74 283.487 148.238 283.455 147.734 283.414C147.684 283.404 147.632 283.399 147.58 283.398C146.793 283.333 146.006 283.26 145.217 283.192C144.703 283.143 144.178 283.102 143.659 283.046C142.775 282.964 141.891 282.866 141.006 282.77C140.595 282.729 140.171 282.688 139.757 282.639C138.459 282.493 137.161 282.338 135.862 282.176C135.716 282.159 135.562 282.136 135.415 282.119C134.272 281.965 133.128 281.819 131.983 281.656C131.968 281.656 131.943 281.648 131.927 281.648C131.627 281.607 131.335 281.558 131.035 281.51C130.036 281.371 129.039 281.225 128.049 281.062C127.562 280.989 127.075 280.908 126.588 280.826C126.382 280.794 126.158 280.753 125.948 280.723V215.271L127.27 215.49C127.749 215.563 128.227 215.653 128.709 215.726C129.706 215.88 130.705 216.027 131.711 216.173C132.028 216.222 132.336 216.27 132.652 216.311C133.829 216.482 135.005 216.637 136.182 216.791C136.295 216.808 136.409 216.823 136.53 216.831C137.821 217.002 139.119 217.157 140.426 217.303L141.634 217.425C142.534 217.522 143.427 217.62 144.327 217.709C144.841 217.758 145.355 217.799 145.868 217.847L148.245 218.066L149.889 218.189C150.653 218.246 151.415 218.31 152.178 218.36C152.754 218.4 153.329 218.433 153.906 218.473C154.644 218.514 155.382 218.563 156.121 218.604C156.713 218.636 157.305 218.66 157.898 218.693L160.072 218.79C160.673 218.815 161.281 218.831 161.882 218.855C162.596 218.88 163.32 218.904 164.031 218.921C164.599 218.936 165.168 218.944 165.744 218.961C166.523 218.977 167.302 218.994 168.081 219.002C168.664 219.009 169.257 219.009 169.849 219.009C170.603 219.018 171.358 219.018 172.11 219.018C172.71 219.018 173.311 219.009 173.911 219.002C174.666 219.002 175.412 218.994 176.158 218.977C176.759 218.969 177.367 218.953 177.967 218.936C178.714 218.921 179.46 218.904 180.199 218.88C180.783 218.863 181.359 218.839 181.935 218.823C182.819 218.79 183.696 218.75 184.581 218.709C185.124 218.685 185.668 218.66 186.211 218.627C187.144 218.579 188.069 218.525 189.002 218.465C189.489 218.433 189.976 218.408 190.455 218.376C191.639 218.295 192.818 218.205 193.992 218.108L194.674 218.059C196.078 217.937 197.481 217.815 198.877 217.676C199.125 217.653 199.361 217.628 199.596 217.596Z" fill="white" fill-opacity="0.2"/>
<path d="M469.513 139.064C469.501 139.193 469.492 139.321 469.469 139.45C469.449 139.553 469.417 139.656 469.39 139.759C469.358 139.882 469.328 140.005 469.287 140.126C469.251 140.229 469.204 140.326 469.16 140.426C469.105 140.554 469.05 140.682 468.982 140.808C468.932 140.899 468.874 140.99 468.818 141.081C468.729 141.225 468.635 141.368 468.529 141.509C468.424 141.65 468.324 141.781 468.206 141.914C468.179 141.945 468.153 141.977 468.126 142.008C467.967 142.181 467.794 142.35 467.612 142.517C467.495 142.619 467.364 142.722 467.236 142.825C467.107 142.928 467.014 143.009 466.893 143.097C466.754 143.2 466.602 143.294 466.453 143.391C466.304 143.489 466.152 143.597 465.985 143.692L416.182 172.685C415.807 172.9 415.421 173.095 415.026 173.271C414.911 173.323 414.794 173.374 414.677 173.42C414.362 173.552 414.041 173.674 413.712 173.787C413.595 173.827 413.48 173.87 413.361 173.907C413.156 173.973 412.941 174.03 412.728 174.088C412.568 174.132 412.411 174.178 412.248 174.218C412.025 174.272 411.797 174.321 411.569 174.363C411.415 174.394 411.261 174.429 411.108 174.457C410.65 174.538 410.183 174.602 409.715 174.652C409.57 174.667 409.424 174.676 409.279 174.688C409.004 174.711 408.728 174.731 408.451 174.743C408.275 174.75 408.098 174.754 407.922 174.758C407.698 174.758 407.474 174.764 407.249 174.758C407.062 174.758 406.876 174.75 406.689 174.742C406.483 174.734 406.278 174.724 406.072 174.709C405.882 174.696 405.694 174.68 405.506 174.662C405.3 174.642 405.097 174.619 404.895 174.594C404.71 174.57 404.527 174.544 404.346 174.516C404.129 174.482 403.912 174.444 403.698 174.402C403.528 174.371 403.358 174.337 403.19 174.299C402.933 174.243 402.676 174.179 402.43 174.112C402.289 174.075 402.148 174.04 402.009 174C401.56 173.868 401.12 173.721 400.696 173.555C400.485 173.473 400.285 173.383 400.08 173.293C399.977 173.245 399.864 173.203 399.76 173.154C399.452 173.007 399.152 172.851 398.863 172.684L348.72 143.696C347.654 143.114 346.728 142.306 346.006 141.329C345.432 140.548 345.117 139.606 345.106 138.637L345.012 171.764C345.006 173.594 346.212 175.428 348.625 176.823L398.76 205.819C399.049 205.987 399.349 206.142 399.657 206.288C399.76 206.338 399.87 206.381 399.976 206.427C400.158 206.509 400.337 206.593 400.526 206.667C400.547 206.676 400.572 206.682 400.593 206.69C401.018 206.855 401.458 206.999 401.907 207.134C401.944 207.145 401.976 207.16 402.009 207.17C402.112 207.199 402.215 207.22 402.323 207.247C402.574 207.314 402.827 207.377 403.084 207.434C403.153 207.449 403.218 207.469 403.29 207.483C403.392 207.504 403.495 207.517 403.598 207.537C403.813 207.578 404.029 207.616 404.246 207.65C404.334 207.663 404.419 207.683 404.506 207.695C404.594 207.708 404.698 207.715 404.795 207.727C405 207.753 405.204 207.776 405.406 207.796C405.503 207.806 405.599 207.82 405.697 207.828C405.795 207.836 405.88 207.836 405.971 207.844C406.177 207.857 406.382 207.868 406.593 207.877C406.696 207.877 406.799 207.891 406.901 207.893C406.985 207.893 407.068 207.893 407.151 207.893C407.376 207.893 407.599 207.893 407.824 207.893C407.934 207.893 408.045 207.893 408.156 207.893C408.222 207.893 408.288 207.883 408.353 207.881C408.631 207.868 408.906 207.848 409.181 207.825C409.292 207.816 409.403 207.814 409.514 207.802C409.548 207.802 409.582 207.792 409.617 207.788C410.087 207.739 410.552 207.674 411.011 207.593C411.033 207.593 411.057 207.593 411.078 207.584C411.212 207.561 411.34 207.527 411.472 207.5C411.7 207.455 411.928 207.409 412.151 207.355C412.314 207.316 412.472 207.269 412.632 207.225C412.845 207.167 413.056 207.11 413.264 207.045C413.308 207.03 413.354 207.02 413.398 207.006C413.473 206.982 413.541 206.949 413.615 206.923C413.944 206.812 414.265 206.69 414.579 206.558C414.697 206.509 414.814 206.46 414.929 206.408C415.325 206.233 415.71 206.037 416.085 205.822L465.89 176.825L466.04 176.737C466.153 176.669 466.245 176.595 466.356 176.525C466.506 176.428 466.658 176.331 466.797 176.231C466.918 176.143 467.026 176.05 467.139 175.96C467.252 175.869 467.399 175.754 467.516 175.651C467.54 175.629 467.569 175.61 467.592 175.588C467.75 175.443 467.895 175.294 468.032 175.144C468.061 175.113 468.086 175.081 468.113 175.049C468.196 174.956 468.279 174.864 468.353 174.77C468.385 174.729 468.406 174.685 468.437 174.644C468.54 174.503 468.636 174.36 468.725 174.215C468.763 174.155 468.811 174.097 468.846 174.036C468.863 174.005 468.873 173.974 468.889 173.943C468.957 173.817 469.012 173.689 469.068 173.56C469.101 173.486 469.144 173.413 469.171 173.338C469.18 173.312 469.183 173.287 469.192 173.262C469.235 173.139 469.265 173.017 469.295 172.894C469.317 172.812 469.349 172.73 469.366 172.647C469.371 172.625 469.366 172.603 469.373 172.582C469.398 172.452 469.406 172.323 469.418 172.193C469.425 172.11 469.444 172.027 469.446 171.943C469.446 171.907 469.446 171.871 469.446 171.84L469.54 138.712C469.543 138.824 469.523 138.944 469.513 139.064Z" fill="#292929"/>
<path d="M465.928 133.646C470.726 136.42 470.751 140.92 465.979 143.698L416.176 172.692C411.405 175.471 403.649 175.471 398.853 172.692L348.719 143.696C343.921 140.922 343.897 136.422 348.667 133.645L398.471 104.65C403.242 101.871 410.997 101.871 415.794 104.65L465.928 133.646Z" fill="#323232"/>
<path d="M470 0V138.683C470.01 140.495 468.818 142.317 466.434 143.706L416.63 172.703C413.896 174.16 410.827 174.873 407.732 174.772V0H470Z" fill="url(#paint0_linear_1_467)"/>
<path d="M407.731 0V174.772C404.794 174.797 401.898 174.086 399.305 172.703L349.172 143.706C346.778 142.317 345.566 140.495 345.555 138.683H345.463V0H407.731Z" fill="url(#paint1_linear_1_467)"/>
<defs>
<filter id="filter0_f_1_467" x="115" y="252.095" width="95" height="64.0161" filterUnits="userSpaceOnUse" color-interpolation-filters="sRGB">
<feFlood flood-opacity="0" result="BackgroundImageFix"/>
<feBlend mode="normal" in="SourceGraphic" in2="BackgroundImageFix" result="shape"/>
<feGaussianBlur stdDeviation="5" result="effect1_foregroundBlur_1_467"/>
</filter>
<linearGradient id="paint0_linear_1_467" x1="439.866" y1="179.302" x2="437.395" y2="-47.0634" gradientUnits="userSpaceOnUse">
<stop stop-color="#F2F2F2" stop-opacity="0.1"/>
<stop offset="0.608" stop-color="#F2F2F2" stop-opacity="0"/>
</linearGradient>
<linearGradient id="paint1_linear_1_467" x1="377.064" y1="173.354" x2="376.081" y2="-44.9451" gradientUnits="userSpaceOnUse">
<stop stop-color="#F2F2F2" stop-opacity="0.2"/>
<stop offset="0.597" stop-color="#F2F2F2" stop-opacity="0"/>
</linearGradient>
</defs>
</svg>
