<svg width="25" height="20" viewBox="0 0 25 20" fill="none" xmlns="http://www.w3.org/2000/svg">
<path d="M23.5588 1.01006C22.6012 1.68553 21.5409 2.20217 20.4188 2.54006C19.8165 1.84757 19.0161 1.35675 18.1258 1.13398C17.2355 0.911216 16.2983 0.967251 15.4409 1.29451C14.5835 1.62177 13.8472 2.20446 13.3318 2.96377C12.8163 3.72309 12.5465 4.62239 12.5588 5.54006V6.54006C10.8014 6.58562 9.06008 6.19587 7.48982 5.4055C5.91955 4.61513 4.56912 3.44869 3.55881 2.01006C3.55881 2.01006 -0.441193 11.0101 8.55881 15.0101C6.49934 16.408 4.04596 17.109 1.55881 17.0101C10.5588 22.0101 21.5588 17.0101 21.5588 5.51006C21.5579 5.23151 21.5311 4.95365 21.4788 4.68006C22.4994 3.67355 23.2196 2.40277 23.5588 1.01006V1.01006Z" stroke="white" stroke-width="2" stroke-linecap="round" stroke-linejoin="round"/>
</svg>
