<svg width="374" height="56" viewBox="0 0 374 56" fill="none" xmlns="http://www.w3.org/2000/svg">
<rect width="374" height="56" rx="5" fill="#282828"/>
<path d="M21.4219 20.2812H28.1406V21.5312H22.7891V25.3516H27.8281V26.6016H22.7891V30.75H28.375V32H21.4219V20.2812ZM30.7969 32V24.1875H31.9609L32.0312 25.375C32.3385 24.9531 32.7161 24.625 33.1641 24.3906C33.612 24.151 34.112 24.0312 34.6641 24.0312C35.2943 24.0312 35.8516 24.1849 36.3359 24.4922C36.8255 24.7943 37.2083 25.2135 37.4844 25.75C37.7656 26.2865 37.9062 26.901 37.9062 27.5938V32H36.6172V27.75C36.6172 26.9896 36.4115 26.375 36 25.9062C35.5938 25.4375 35.0625 25.2031 34.4062 25.2031C33.9635 25.2031 33.5677 25.3125 33.2188 25.5312C32.8698 25.7448 32.5938 26.0365 32.3906 26.4062C32.1875 26.776 32.0859 27.1979 32.0859 27.6719V32H30.7969ZM40.9141 24.1875V22.2344H42.2031V24.1875H44.3281V25.3594H42.2031V29.5469C42.2031 30.5052 42.6354 30.9844 43.5 30.9844C43.6354 30.9844 43.7734 30.974 43.9141 30.9531C44.0599 30.9271 44.1979 30.8828 44.3281 30.8203V31.9453C44.1927 32.0026 44.0312 32.0521 43.8438 32.0938C43.6615 32.1354 43.4479 32.1562 43.2031 32.1562C42.4635 32.1562 41.8958 31.9401 41.5 31.5078C41.1094 31.0755 40.9141 30.4583 40.9141 29.6562V25.3594H39.625V24.1875H40.9141ZM53.9531 28.0859V28.6094H47.3281C47.4583 29.3021 47.7917 29.8724 48.3281 30.3203C48.8698 30.763 49.5208 30.9844 50.2812 30.9844C50.7031 30.9844 51.1484 30.9036 51.6172 30.7422C52.0859 30.5755 52.513 30.3099 52.8984 29.9453L53.6562 30.9141C53.0885 31.388 52.5208 31.7135 51.9531 31.8906C51.3906 32.0677 50.8464 32.1562 50.3203 32.1562C49.4766 32.1562 48.7266 31.9818 48.0703 31.6328C47.4141 31.2786 46.8984 30.7917 46.5234 30.1719C46.1536 29.5521 45.9688 28.8464 45.9688 28.0547C45.9688 27.2839 46.1432 26.5964 46.4922 25.9922C46.8411 25.3828 47.3203 24.9036 47.9297 24.5547C48.5391 24.2057 49.2292 24.0312 50 24.0312C50.7708 24.0312 51.4531 24.2057 52.0469 24.5547C52.6406 24.9036 53.1068 25.3828 53.4453 25.9922C53.7839 26.6016 53.9531 27.2995 53.9531 28.0859ZM47.3125 27.5156H52.6094C52.4948 26.8333 52.2005 26.2786 51.7266 25.8516C51.2526 25.4193 50.6745 25.2031 49.9922 25.2031C49.2995 25.2031 48.7083 25.4219 48.2188 25.8594C47.7292 26.2917 47.4271 26.8438 47.3125 27.5156ZM55.9062 32V24.1875H57.0703L57.1484 25.4141C57.4089 24.9974 57.7448 24.6641 58.1562 24.4141C58.5677 24.1589 59.0599 24.0312 59.6328 24.0312C59.8672 24.0312 60.112 24.0547 60.3672 24.1016L60.1797 25.2969C59.9245 25.2344 59.6849 25.2031 59.4609 25.2031C58.7422 25.2031 58.1849 25.4688 57.7891 26C57.3932 26.526 57.1953 27.1797 57.1953 27.9609V32H55.9062ZM65.7656 20.2812H72.4844V21.5312H67.1328V25.3516H72.1719V26.6016H67.1328V30.75H72.7188V32H65.7656V20.2812ZM76.3047 24.1875L76.3594 25.1172C76.6615 24.7786 77.0182 24.513 77.4297 24.3203C77.8464 24.1276 78.2995 24.0312 78.7891 24.0312C79.3776 24.0312 79.901 24.1719 80.3594 24.4531C80.8177 24.7292 81.1745 25.1146 81.4297 25.6094C81.7266 25.125 82.1172 24.7422 82.6016 24.4609C83.0859 24.1745 83.625 24.0312 84.2188 24.0312C84.8177 24.0312 85.3464 24.1745 85.8047 24.4609C86.2682 24.7474 86.6302 25.1484 86.8906 25.6641C87.1562 26.1797 87.2891 26.7786 87.2891 27.4609V32.0078H86V27.6562C86 27.1094 85.8984 26.6562 85.6953 26.2969C85.4974 25.9323 85.2396 25.6589 84.9219 25.4766C84.6094 25.2943 84.2786 25.2031 83.9297 25.2031C83.5859 25.2031 83.2552 25.2943 82.9375 25.4766C82.6198 25.6589 82.3594 25.9323 82.1562 26.2969C81.9583 26.6615 81.8594 27.1198 81.8594 27.6719V32.0078H80.5703V27.6562C80.5703 27.1094 80.4688 26.6562 80.2656 26.2969C80.0677 25.9323 79.8099 25.6589 79.4922 25.4766C79.1797 25.2943 78.849 25.2031 78.5 25.2031C78.1562 25.2031 77.8255 25.2943 77.5078 25.4766C77.1953 25.6589 76.9375 25.9323 76.7344 26.2969C76.5312 26.6615 76.4297 27.1198 76.4297 27.6719V32H75.1406V24.1875H76.3047ZM89.3906 29.6719C89.3906 28.8906 89.6927 28.2708 90.2969 27.8125C90.9062 27.349 91.7266 27.1172 92.7578 27.1172C93.4557 27.1172 94.1406 27.224 94.8125 27.4375V27.3438C94.8125 26.6771 94.6198 26.1536 94.2344 25.7734C93.8542 25.3932 93.3307 25.2031 92.6641 25.2031C91.9922 25.2031 91.263 25.4271 90.4766 25.875L90.0078 24.7969C90.5339 24.5208 91.0104 24.3255 91.4375 24.2109C91.8646 24.0911 92.3229 24.0312 92.8125 24.0312C93.8125 24.0312 94.6094 24.3359 95.2031 24.9453C95.8021 25.5547 96.1016 26.3698 96.1016 27.3906V32H94.9375L94.8672 30.8438C94.6068 31.2552 94.2526 31.5781 93.8047 31.8125C93.3568 32.0417 92.8385 32.1562 92.25 32.1562C91.401 32.1562 90.7109 31.9271 90.1797 31.4688C89.6536 31.0104 89.3906 30.4115 89.3906 29.6719ZM92.875 28.2891C92.1979 28.2891 91.6693 28.4115 91.2891 28.6562C90.9089 28.8958 90.7188 29.2344 90.7188 29.6719C90.7188 30.0677 90.8698 30.3854 91.1719 30.625C91.4792 30.8646 91.8854 30.9844 92.3906 30.9844C92.849 30.9844 93.2604 30.888 93.625 30.6953C93.9896 30.5026 94.2786 30.2422 94.4922 29.9141C94.7057 29.5859 94.8125 29.2188 94.8125 28.8125V28.6016C94.1771 28.3932 93.5312 28.2891 92.875 28.2891ZM98.2031 21.1797C98.2031 20.9193 98.2865 20.7057 98.4531 20.5391C98.625 20.3672 98.8385 20.2812 99.0938 20.2812C99.3542 20.2812 99.5703 20.3672 99.7422 20.5391C99.9141 20.7057 100 20.9193 100 21.1797C100 21.4349 99.9141 21.6484 99.7422 21.8203C99.5703 21.9922 99.3542 22.0781 99.0938 22.0781C98.8385 22.0781 98.625 21.9922 98.4531 21.8203C98.2865 21.6484 98.2031 21.4349 98.2031 21.1797ZM98.4531 32V24.1875H99.75V32H98.4531ZM103.578 19.9688V32H102.25V19.9688H103.578Z" fill="white" fill-opacity="0.2"/>
<path d="M299.035 29.3301C299.336 29.6426 299.676 29.873 300.055 30.0215C300.434 30.166 300.807 30.2383 301.174 30.2383C301.529 30.2383 301.857 30.1758 302.158 30.0508C302.463 29.9258 302.707 29.748 302.891 29.5176C303.074 29.2832 303.166 29.0039 303.166 28.6797C303.166 28.3477 303.07 28.0703 302.879 27.8477C302.688 27.625 302.438 27.4316 302.129 27.2676C301.824 27.0996 301.5 26.9395 301.156 26.7871C300.871 26.6582 300.588 26.5234 300.307 26.3828C300.025 26.2383 299.77 26.0742 299.539 25.8906C299.312 25.7031 299.131 25.4824 298.994 25.2285C298.857 24.9746 298.789 24.6699 298.789 24.3145C298.789 23.8379 298.914 23.4297 299.164 23.0898C299.414 22.75 299.75 22.4902 300.172 22.3105C300.598 22.127 301.07 22.0352 301.59 22.0352C301.934 22.0352 302.291 22.0781 302.662 22.1641C303.033 22.2461 303.402 22.377 303.77 22.5566L303.354 23.4355C303.08 23.2754 302.797 23.1582 302.504 23.084C302.211 23.0098 301.926 22.9727 301.648 22.9727C301.152 22.9727 300.727 23.0859 300.371 23.3125C300.02 23.5391 299.844 23.8633 299.844 24.2852C299.844 24.582 299.934 24.832 300.113 25.0352C300.293 25.2383 300.527 25.416 300.816 25.5684C301.105 25.7207 301.414 25.8711 301.742 26.0195C302.035 26.1523 302.328 26.293 302.621 26.4414C302.914 26.5898 303.182 26.7617 303.424 26.957C303.666 27.1523 303.859 27.3848 304.004 27.6543C304.152 27.9199 304.227 28.2383 304.227 28.6094C304.227 29.1016 304.092 29.541 303.822 29.9277C303.557 30.3145 303.193 30.6191 302.732 30.8418C302.271 31.0645 301.748 31.1758 301.162 31.1758C300.709 31.1758 300.254 31.0996 299.797 30.9473C299.34 30.7949 298.914 30.5586 298.52 30.2383L299.035 29.3301ZM308.267 27.1328V22.2109H309.293V27.3086C309.293 27.875 309.398 28.3789 309.609 28.8203C309.82 29.2578 310.117 29.6035 310.5 29.8574C310.882 30.1113 311.33 30.2383 311.841 30.2383C312.357 30.2383 312.804 30.1113 313.183 29.8574C313.566 29.6035 313.863 29.2578 314.074 28.8203C314.285 28.3789 314.39 27.875 314.39 27.3086V22.2109H315.416V27.1328C315.416 27.9531 315.273 28.666 314.988 29.2715C314.707 29.877 314.298 30.3457 313.763 30.6777C313.232 31.0098 312.591 31.1758 311.841 31.1758C311.095 31.1758 310.455 31.0098 309.92 30.6777C309.384 30.3457 308.974 29.877 308.689 29.2715C308.408 28.666 308.267 27.9531 308.267 27.1328ZM319.691 22.2109H322.292C323.234 22.2109 323.964 22.4023 324.484 22.7852C325.007 23.1641 325.269 23.7168 325.269 24.4434C325.269 24.9082 325.159 25.3027 324.941 25.627C324.722 25.9512 324.409 26.2012 324.003 26.377C324.519 26.5527 324.915 26.8262 325.193 27.1973C325.47 27.5645 325.609 28.0215 325.609 28.5684C325.609 29.3574 325.327 29.9609 324.765 30.3789C324.202 30.793 323.415 31 322.404 31H319.691V22.2109ZM320.716 23.1484V25.9609H322.427C322.993 25.9609 323.433 25.8418 323.745 25.6035C324.058 25.3613 324.214 25.0117 324.214 24.5547C324.214 24.0977 324.058 23.75 323.745 23.5117C323.433 23.2695 322.993 23.1484 322.427 23.1484H320.716ZM322.544 30.0625C323.181 30.0625 323.675 29.9277 324.027 29.6582C324.378 29.3848 324.554 28.9902 324.554 28.4746C324.554 27.9629 324.378 27.5723 324.027 27.3027C323.675 27.0332 323.181 26.8984 322.544 26.8984H320.716V30.0625H322.544ZM329.567 22.2109H331.114L333.997 28.3867L336.874 22.2109H338.386V31H337.36V23.5293L334.548 29.5645H333.417L330.593 23.5176V31H329.567V22.2109ZM343.692 22.2109V31H342.666V22.2109H343.692ZM347.27 23.1484V22.2109H353.715V23.1484H351.002V31H349.982V23.1484H347.27Z" fill="white"/>
</svg>
