<svg width="46" height="32" viewBox="0 0 46 32" fill="none" xmlns="http://www.w3.org/2000/svg">
<g clip-path="url(#clip0_1_844)">
<path d="M45.7198 17.7789C45.6612 25.6798 39.2198 32.043 31.3189 32.0011C30.2863 32.0011 29.5663 30.9797 29.9095 30.0057C31.3719 25.8752 32.0752 21.4852 31.972 17.0979C31.958 16.4867 31.2436 16.5732 31.1626 16.9305L29.876 23.182C29.7839 23.6285 29.3681 23.9439 28.9132 23.8881C28.4583 23.8434 28.1122 23.4611 28.1122 23.0034L28.0927 14.441C28.0927 14.1843 27.8806 13.975 27.6238 13.975C27.3866 13.975 27.1884 14.1536 27.1605 14.388L26.273 21.9959C26.22 22.448 25.8405 22.7857 25.3883 22.7857C25.3856 22.7857 25.3856 22.7857 25.3828 22.7857C24.9279 22.7829 24.5483 22.4368 24.5008 21.9847L23.591 13.1154C23.552 12.7247 22.8738 12.7302 22.8403 13.121L22.1705 20.9437C22.1342 21.3707 21.7965 21.7112 21.3695 21.7531C20.9481 21.8089 20.5462 21.5298 20.4262 21.1168L18.6763 15.1583C18.6233 14.9741 18.4503 14.8569 18.2577 14.8792C18.0428 14.9015 17.8921 15.0857 17.9088 15.3006L18.5759 23.4471C18.6093 23.8351 18.3833 24.2007 18.0205 24.3458C17.6577 24.4909 17.2418 24.3849 16.9962 24.0807L15.464 22.1912C15.1626 21.8201 14.6296 21.7335 14.2249 21.9959C13.8146 22.2582 13.6779 22.7857 13.9012 23.2183L16.7339 29.9219C17.1497 30.9099 16.4269 32.0011 15.3552 32.0011H10.9121C4.91738 32.0262 0.0361654 27.1925 -0.000115829 21.1977C-0.00848841 18.3231 1.1553 15.5685 3.22333 13.5703C4.68574 12.1162 6.53329 11.1143 8.5455 10.6817C8.87761 7.97461 10.1112 5.45725 12.0536 3.54272C16.8818 -1.17383 24.5902 -1.17941 29.4267 3.52877L29.5691 3.6711C35.5694 2.86454 41.4218 5.94565 44.1541 11.346C45.1895 13.3331 45.7253 15.5406 45.7198 17.7789Z" fill="white"/>
</g>
<defs>
<clipPath id="clip0_1_844">
<rect width="45.7199" height="32" fill="white"/>
</clipPath>
</defs>
</svg>
