<svg width="52" height="64" viewBox="0 0 52 64" fill="none" xmlns="http://www.w3.org/2000/svg">
<path d="M27.8784 32.605L27.9498 57.2805L39.7007 63.9999L39.6293 39.3249L27.8784 32.605Z" fill="#999999"/>
<path d="M39.6297 39.3249L39.7011 63.9999L51.5252 57.2823L51.4538 32.6074L39.6297 39.3249Z" fill="#404040"/>
<path d="M27.8788 32.6051L39.6297 39.3251L51.4538 32.6075L39.7029 25.8882L27.8788 32.6051Z" fill="#545454"/>
<path d="M0.474954 6.7168L0.545712 57.2805L12.2972 63.9998L12.2259 13.4367L0.474954 6.7168Z" fill="#999999"/>
<path d="M12.2258 13.4368L12.2971 63.9998L24.1207 57.2823L24.0499 6.71924L12.2258 13.4368Z" fill="#404040"/>
<path d="M0.474789 6.71692L12.2257 13.4369L24.0498 6.71934L12.2989 0L0.474789 6.71692Z" fill="#545454"/>
</svg>
