<svg width="124" height="26" viewBox="0 0 124 26" fill="none" xmlns="http://www.w3.org/2000/svg">
<path d="M2.60151 7.15987L2.71453 8.90534C3.28379 8.28584 3.96608 7.80029 4.76137 7.44869C5.56504 7.08871 6.43987 6.90872 7.38586 6.90872C8.60811 6.90872 9.69641 7.19336 10.6508 7.76262C11.6051 8.32352 12.3544 9.09788 12.8985 10.0857C13.4511 11.0652 13.7273 12.1828 13.7273 13.4385C13.7273 14.6943 13.4511 15.8161 12.8985 16.8039C12.3544 17.7834 11.6051 18.5577 10.6508 19.127C9.69641 19.6879 8.60811 19.9684 7.38586 19.9684C6.46499 19.9684 5.61109 19.8009 4.82416 19.4661C4.04561 19.1312 3.3717 18.6666 2.80243 18.0722V25.9959H0.730469V7.15987H2.60151ZM7.1975 18.0848C8.04303 18.0848 8.79646 17.8838 9.45782 17.482C10.1192 17.0802 10.6382 16.5276 11.0149 15.8244C11.4 15.1212 11.5926 14.3259 11.5926 13.4385C11.5926 12.5428 11.4 11.7475 11.0149 11.0526C10.6382 10.3494 10.1192 9.79691 9.45782 9.39507C8.79646 8.99324 8.04303 8.79232 7.1975 8.79232C6.35197 8.79232 5.59853 8.99324 4.93718 9.39507C4.27582 9.79691 3.7526 10.3494 3.36751 11.0526C2.99079 11.7475 2.80243 12.5428 2.80243 13.4385C2.80243 14.3259 2.99079 15.1212 3.36751 15.8244C3.7526 16.5276 4.27582 17.0802 4.93718 17.482C5.59853 17.8838 6.35197 18.0848 7.1975 18.0848Z" fill="white"/>
<path d="M15.5933 19.7172V7.15987H17.4644L17.59 9.13137C18.0085 8.46165 18.5485 7.92587 19.2098 7.52403C19.8712 7.11382 20.6623 6.90872 21.5832 6.90872C21.9599 6.90872 22.3534 6.94639 22.7636 7.02174L22.4622 8.94301C22.052 8.84255 21.6669 8.79232 21.3069 8.79232C20.1516 8.79232 19.2559 9.21927 18.6197 10.0732C17.9834 10.9187 17.6653 11.9693 17.6653 13.2251V19.7172H15.5933Z" fill="white"/>
<path d="M22.746 13.4385C22.746 12.1828 23.0264 11.0652 23.5873 10.0857C24.1566 9.09788 24.931 8.32352 25.9104 7.76262C26.8983 7.19336 28.0201 6.90872 29.2758 6.90872C30.5315 6.90872 31.6491 7.19336 32.6286 7.76262C33.6165 8.32352 34.3908 9.09788 34.9517 10.0857C35.521 11.0652 35.8056 12.1828 35.8056 13.4385C35.8056 14.6943 35.521 15.8161 34.9517 16.8039C34.3908 17.7834 33.6165 18.5577 32.6286 19.127C31.6491 19.6879 30.5315 19.9684 29.2758 19.9684C28.0201 19.9684 26.8983 19.6879 25.9104 19.127C24.931 18.5577 24.1566 17.7834 23.5873 16.8039C23.0264 15.8161 22.746 14.6943 22.746 13.4385ZM24.8807 13.4385C24.8807 14.3259 25.0691 15.1212 25.4458 15.8244C25.8309 16.5276 26.3541 17.0802 27.0155 17.482C27.6768 17.8838 28.4303 18.0848 29.2758 18.0848C30.1213 18.0848 30.8748 17.8838 31.5361 17.482C32.1975 17.0802 32.7165 16.5276 33.0932 15.8244C33.4783 15.1212 33.6709 14.3259 33.6709 13.4385C33.6709 12.5428 33.4783 11.7475 33.0932 11.0526C32.7165 10.3494 32.1975 9.79691 31.5361 9.39507C30.8748 8.99324 30.1213 8.79232 29.2758 8.79232C28.4303 8.79232 27.6768 8.99324 27.0155 9.39507C26.3541 9.79691 25.8309 10.3494 25.4458 11.0526C25.0691 11.7475 24.8807 12.5428 24.8807 13.4385Z" fill="white"/>
<path d="M39.4799 7.15987V13.9911C39.4799 15.2049 39.8064 16.1928 40.4594 16.9546C41.1207 17.708 41.9788 18.0848 43.0336 18.0848C43.7452 18.0848 44.3814 17.9131 44.9423 17.5699C45.5032 17.2183 45.9469 16.7453 46.2734 16.1509C46.5999 15.5482 46.7632 14.8701 46.7632 14.1166V7.15987H48.8351V19.7172H46.9641L46.8511 17.8085C46.3655 18.4866 45.7586 19.0182 45.0302 19.4033C44.3103 19.78 43.5066 19.9684 42.6192 19.9684C41.6063 19.9684 40.7063 19.7256 39.9194 19.24C39.1409 18.7461 38.5255 18.068 38.0735 17.2057C37.6298 16.3435 37.4079 15.3556 37.4079 14.2422V7.15987H39.4799Z" fill="white"/>
<path d="M57.03 6.90872C57.9509 6.90872 58.8048 7.07615 59.5917 7.41102C60.3787 7.74588 61.0526 8.2105 61.6135 8.80488V0.8812H63.6854V19.7172H61.8144L61.7014 17.9717C61.1405 18.5912 60.4582 19.081 59.6545 19.4409C58.8509 19.7926 57.976 19.9684 57.03 19.9684C55.8162 19.9684 54.7279 19.6879 53.7651 19.127C52.8108 18.5577 52.0573 17.7834 51.5048 16.8039C50.9607 15.8161 50.6886 14.6943 50.6886 13.4385C50.6886 12.1828 50.9607 11.0652 51.5048 10.0857C52.0573 9.09788 52.8108 8.32352 53.7651 7.76262C54.7279 7.19336 55.8162 6.90872 57.03 6.90872ZM52.8233 13.4385C52.8233 14.3259 53.0117 15.1212 53.3884 15.8244C53.7735 16.5276 54.2967 17.0802 54.9581 17.482C55.6194 17.8838 56.3729 18.0848 57.2184 18.0848C58.0639 18.0848 58.8174 17.8838 59.4787 17.482C60.1401 17.0802 60.6591 16.5276 61.0358 15.8244C61.4209 15.1212 61.6135 14.3259 61.6135 13.4385C61.6135 12.5428 61.4209 11.7475 61.0358 11.0526C60.6591 10.3494 60.1401 9.79691 59.4787 9.39507C58.8174 8.99324 58.0639 8.79232 57.2184 8.79232C56.3729 8.79232 55.6194 8.99324 54.9581 9.39507C54.2967 9.79691 53.7735 10.3494 53.3884 11.0526C53.0117 11.7475 52.8233 12.5428 52.8233 13.4385Z" fill="white"/>
<path d="M76.7652 18.1099C76.1791 18.6959 75.4885 19.1521 74.6932 19.4786C73.8979 19.8051 73.0272 19.9684 72.0813 19.9684C70.8255 19.9684 69.7037 19.6879 68.7159 19.127C67.7364 18.5577 66.9621 17.7834 66.3928 16.8039C65.8319 15.8161 65.5514 14.6943 65.5514 13.4385C65.5514 12.1828 65.8319 11.0652 66.3928 10.0857C66.9621 9.09788 67.7364 8.32352 68.7159 7.76262C69.7037 7.19336 70.8255 6.90872 72.0813 6.90872C73.0272 6.90872 73.8979 7.07197 74.6932 7.39846C75.4885 7.72495 76.1791 8.17701 76.7652 8.75465L75.3211 10.1987C74.9276 9.75505 74.4546 9.41182 73.9021 9.16904C73.3496 8.9179 72.7426 8.79232 72.0813 8.79232C71.2357 8.79232 70.4823 8.99324 69.8209 9.39507C69.1596 9.79691 68.6364 10.3494 68.2513 11.0526C67.8746 11.7475 67.6862 12.5428 67.6862 13.4385C67.6862 14.3259 67.8746 15.1212 68.2513 15.8244C68.6364 16.5276 69.1596 17.0802 69.8209 17.482C70.4823 17.8838 71.2357 18.0848 72.0813 18.0848C72.7426 18.0848 73.3496 17.9592 73.9021 17.708C74.4546 17.4569 74.9276 17.1137 75.3211 16.6783L76.7652 18.1099Z" fill="white"/>
<path d="M80.7659 0.378906V19.7172H78.6312V0.378906H80.7659Z" fill="white"/>
<path d="M82.6194 13.4385C82.6194 12.1828 82.8998 11.0652 83.4607 10.0857C84.03 9.09788 84.8044 8.32352 85.7838 7.76262C86.7717 7.19336 87.8935 6.90872 89.1492 6.90872C90.4049 6.90872 91.5225 7.19336 92.502 7.76262C93.4898 8.32352 94.2642 9.09788 94.8251 10.0857C95.3944 11.0652 95.679 12.1828 95.679 13.4385C95.679 14.6943 95.3944 15.8161 94.8251 16.8039C94.2642 17.7834 93.4898 18.5577 92.502 19.127C91.5225 19.6879 90.4049 19.9684 89.1492 19.9684C87.8935 19.9684 86.7717 19.6879 85.7838 19.127C84.8044 18.5577 84.03 17.7834 83.4607 16.8039C82.8998 15.8161 82.6194 14.6943 82.6194 13.4385ZM84.7541 13.4385C84.7541 14.3259 84.9425 15.1212 85.3192 15.8244C85.7043 16.5276 86.2275 17.0802 86.8889 17.482C87.5502 17.8838 88.3037 18.0848 89.1492 18.0848C89.9947 18.0848 90.7482 17.8838 91.4095 17.482C92.0709 17.0802 92.5899 16.5276 92.9666 15.8244C93.3517 15.1212 93.5443 14.3259 93.5443 13.4385C93.5443 12.5428 93.3517 11.7475 92.9666 11.0526C92.5899 10.3494 92.0709 9.79691 91.4095 9.39507C90.7482 8.99324 89.9947 8.79232 89.1492 8.79232C88.3037 8.79232 87.5502 8.99324 86.8889 9.39507C86.2275 9.79691 85.7043 10.3494 85.3192 11.0526C84.9425 11.7475 84.7541 12.5428 84.7541 13.4385Z" fill="white"/>
<path d="M99.3533 7.15987V13.9911C99.3533 15.2049 99.6798 16.1928 100.333 16.9546C100.994 17.708 101.852 18.0848 102.907 18.0848C103.619 18.0848 104.255 17.9131 104.816 17.5699C105.377 17.2183 105.82 16.7453 106.147 16.1509C106.473 15.5482 106.637 14.8701 106.637 14.1166V7.15987H108.709V19.7172H106.837L106.724 17.8085C106.239 18.4866 105.632 19.0182 104.904 19.4033C104.184 19.78 103.38 19.9684 102.493 19.9684C101.48 19.9684 100.58 19.7256 99.7928 19.24C99.0142 18.7461 98.3989 18.068 97.9469 17.2057C97.5032 16.3435 97.2813 15.3556 97.2813 14.2422V7.15987H99.3533Z" fill="white"/>
<path d="M116.903 6.90872C117.824 6.90872 118.678 7.07615 119.465 7.41102C120.252 7.74588 120.926 8.2105 121.487 8.80488V0.8812H123.559V19.7172H121.688L121.575 17.9717C121.014 18.5912 120.332 19.081 119.528 19.4409C118.724 19.7926 117.849 19.9684 116.903 19.9684C115.69 19.9684 114.601 19.6879 113.639 19.127C112.684 18.5577 111.931 17.7834 111.378 16.8039C110.834 15.8161 110.562 14.6943 110.562 13.4385C110.562 12.1828 110.834 11.0652 111.378 10.0857C111.931 9.09788 112.684 8.32352 113.639 7.76262C114.601 7.19336 115.69 6.90872 116.903 6.90872ZM112.697 13.4385C112.697 14.3259 112.885 15.1212 113.262 15.8244C113.647 16.5276 114.17 17.0802 114.831 17.482C115.493 17.8838 116.246 18.0848 117.092 18.0848C117.937 18.0848 118.691 17.8838 119.352 17.482C120.013 17.0802 120.532 16.5276 120.909 15.8244C121.294 15.1212 121.487 14.3259 121.487 13.4385C121.487 12.5428 121.294 11.7475 120.909 11.0526C120.532 10.3494 120.013 9.79691 119.352 9.39507C118.691 8.99324 117.937 8.79232 117.092 8.79232C116.246 8.79232 115.493 8.99324 114.831 9.39507C114.17 9.79691 113.647 10.3494 113.262 11.0526C112.885 11.7475 112.697 12.5428 112.697 13.4385Z" fill="white"/>
</svg>
