<svg width="425" height="32" viewBox="0 0 425 32" fill="none" xmlns="http://www.w3.org/2000/svg">
<path d="M59.6015 13.1601L59.7145 14.9056C60.2838 14.2861 60.9661 13.8005 61.7614 13.4489C62.565 13.089 63.4399 12.909 64.3859 12.909C65.6081 12.909 66.6964 13.1936 67.6508 13.7629C68.6051 14.3238 69.3544 15.0981 69.8985 16.086C70.4511 17.0654 70.7273 18.183 70.7273 19.4388C70.7273 20.6945 70.4511 21.8163 69.8985 22.8041C69.3544 23.7836 68.6051 24.558 67.6508 25.1273C66.6964 25.6882 65.6081 25.9686 64.3859 25.9686C63.465 25.9686 62.6111 25.8012 61.8242 25.4663C61.0456 25.1314 60.3717 24.6668 59.8024 24.0724V31.9961H57.7305V13.1601H59.6015ZM64.1975 24.085C65.043 24.085 65.7965 23.8841 66.4578 23.4822C67.1192 23.0804 67.6382 22.5279 68.0149 21.8247C68.4 21.1215 68.5926 20.3262 68.5926 19.4388C68.5926 18.543 68.4 17.7477 68.0149 17.0529C67.6382 16.3497 67.1192 15.7972 66.4578 15.3953C65.7965 14.9935 65.043 14.7926 64.1975 14.7926C63.352 14.7926 62.5985 14.9935 61.9372 15.3953C61.2758 15.7972 60.7526 16.3497 60.3675 17.0529C59.9908 17.7477 59.8024 18.543 59.8024 19.4388C59.8024 20.3262 59.9908 21.1215 60.3675 21.8247C60.7526 22.5279 61.2758 23.0804 61.9372 23.4822C62.5985 23.8841 63.352 24.085 64.1975 24.085Z" fill="white"/>
<path d="M72.5933 25.7175V13.1601H74.4644L74.59 15.1316C75.0085 14.4619 75.5485 13.9261 76.2098 13.5243C76.8712 13.1141 77.6623 12.909 78.5832 12.909C78.9599 12.909 79.3534 12.9466 79.7636 13.022L79.4622 14.9433C79.052 14.8428 78.6669 14.7926 78.3069 14.7926C77.1516 14.7926 76.2559 15.2195 75.6197 16.0734C74.9834 16.9189 74.6653 17.9696 74.6653 19.2253V25.7175H72.5933Z" fill="white"/>
<path d="M79.746 19.4388C79.746 18.183 80.0264 17.0654 80.5873 16.086C81.1566 15.0981 81.931 14.3238 82.9104 13.7629C83.8983 13.1936 85.0201 12.909 86.2758 12.909C87.5315 12.909 88.6491 13.1936 89.6286 13.7629C90.6165 14.3238 91.3908 15.0981 91.9517 16.086C92.521 17.0654 92.8056 18.183 92.8056 19.4388C92.8056 20.6945 92.521 21.8163 91.9517 22.8041C91.3908 23.7836 90.6165 24.558 89.6286 25.1273C88.6491 25.6882 87.5315 25.9686 86.2758 25.9686C85.0201 25.9686 83.8983 25.6882 82.9104 25.1273C81.931 24.558 81.1566 23.7836 80.5873 22.8041C80.0264 21.8163 79.746 20.6945 79.746 19.4388ZM81.8807 19.4388C81.8807 20.3262 82.0691 21.1215 82.4458 21.8247C82.8309 22.5279 83.3541 23.0804 84.0155 23.4822C84.6768 23.8841 85.4303 24.085 86.2758 24.085C87.1213 24.085 87.8748 23.8841 88.5361 23.4822C89.1975 23.0804 89.7165 22.5279 90.0932 21.8247C90.4783 21.1215 90.6709 20.3262 90.6709 19.4388C90.6709 18.543 90.4783 17.7477 90.0932 17.0529C89.7165 16.3497 89.1975 15.7972 88.5361 15.3953C87.8748 14.9935 87.1213 14.7926 86.2758 14.7926C85.4303 14.7926 84.6768 14.9935 84.0155 15.3953C83.3541 15.7972 82.8309 16.3497 82.4458 17.0529C82.0691 17.7477 81.8807 18.543 81.8807 19.4388Z" fill="white"/>
<path d="M96.4799 13.1601V19.9913C96.4799 21.2052 96.8064 22.193 97.4594 22.9548C98.1207 23.7083 98.9788 24.085 100.034 24.085C100.745 24.085 101.381 23.9134 101.942 23.5701C102.503 23.2185 102.947 22.7455 103.273 22.1512C103.6 21.5484 103.763 20.8703 103.763 20.1169V13.1601H105.835V25.7175H103.964L103.851 23.8087C103.366 24.4868 102.759 25.0184 102.03 25.4035C101.31 25.7802 100.507 25.9686 99.6192 25.9686C98.6063 25.9686 97.7063 25.7258 96.9194 25.2403C96.1409 24.7463 95.5255 24.0683 95.0735 23.206C94.6298 22.3437 94.4079 21.3559 94.4079 20.2425V13.1601H96.4799Z" fill="white"/>
<path d="M114.03 12.909C114.951 12.909 115.805 13.0764 116.592 13.4113C117.379 13.7461 118.053 14.2107 118.613 14.8051V6.88144H120.685V25.7175H118.814L118.701 23.972C118.14 24.5915 117.458 25.0812 116.655 25.4412C115.851 25.7928 114.976 25.9686 114.03 25.9686C112.816 25.9686 111.728 25.6882 110.765 25.1273C109.811 24.558 109.057 23.7836 108.505 22.8041C107.961 21.8163 107.689 20.6945 107.689 19.4388C107.689 18.183 107.961 17.0654 108.505 16.086C109.057 15.0981 109.811 14.3238 110.765 13.7629C111.728 13.1936 112.816 12.909 114.03 12.909ZM109.823 19.4388C109.823 20.3262 110.012 21.1215 110.388 21.8247C110.774 22.5279 111.297 23.0804 111.958 23.4822C112.619 23.8841 113.373 24.085 114.218 24.085C115.064 24.085 115.817 23.8841 116.479 23.4822C117.14 23.0804 117.659 22.5279 118.036 21.8247C118.421 21.1215 118.613 20.3262 118.613 19.4388C118.613 18.543 118.421 17.7477 118.036 17.0529C117.659 16.3497 117.14 15.7972 116.479 15.3953C115.817 14.9935 115.064 14.7926 114.218 14.7926C113.373 14.7926 112.619 14.9935 111.958 15.3953C111.297 15.7972 110.774 16.3497 110.388 17.0529C110.012 17.7477 109.823 18.543 109.823 19.4388Z" fill="white"/>
<path d="M133.765 24.1101C133.179 24.6961 132.488 25.1524 131.693 25.4789C130.898 25.8054 130.027 25.9686 129.081 25.9686C127.826 25.9686 126.704 25.6882 125.716 25.1273C124.736 24.558 123.962 23.7836 123.393 22.8041C122.832 21.8163 122.551 20.6945 122.551 19.4388C122.551 18.183 122.832 17.0654 123.393 16.086C123.962 15.0981 124.736 14.3238 125.716 13.7629C126.704 13.1936 127.826 12.909 129.081 12.909C130.027 12.909 130.898 13.0722 131.693 13.3987C132.488 13.7252 133.179 14.1773 133.765 14.7549L132.321 16.199C131.928 15.7553 131.455 15.4121 130.902 15.1693C130.35 14.9181 129.743 14.7926 129.081 14.7926C128.236 14.7926 127.482 14.9935 126.821 15.3953C126.16 15.7972 125.636 16.3497 125.251 17.0529C124.875 17.7477 124.686 18.543 124.686 19.4388C124.686 20.3262 124.875 21.1215 125.251 21.8247C125.636 22.5279 126.16 23.0804 126.821 23.4822C127.482 23.8841 128.236 24.085 129.081 24.085C129.743 24.085 130.35 23.9594 130.902 23.7083C131.455 23.4571 131.928 23.1139 132.321 22.6786L133.765 24.1101Z" fill="white"/>
<path d="M137.766 6.37915V25.7175H135.631V6.37915H137.766Z" fill="white"/>
<path d="M139.619 19.4388C139.619 18.183 139.9 17.0654 140.461 16.086C141.03 15.0981 141.804 14.3238 142.784 13.7629C143.772 13.1936 144.893 12.909 146.149 12.909C147.405 12.909 148.523 13.1936 149.502 13.7629C150.49 14.3238 151.264 15.0981 151.825 16.086C152.394 17.0654 152.679 18.183 152.679 19.4388C152.679 20.6945 152.394 21.8163 151.825 22.8041C151.264 23.7836 150.49 24.558 149.502 25.1273C148.523 25.6882 147.405 25.9686 146.149 25.9686C144.893 25.9686 143.772 25.6882 142.784 25.1273C141.804 24.558 141.03 23.7836 140.461 22.8041C139.9 21.8163 139.619 20.6945 139.619 19.4388ZM141.754 19.4388C141.754 20.3262 141.942 21.1215 142.319 21.8247C142.704 22.5279 143.228 23.0804 143.889 23.4822C144.55 23.8841 145.304 24.085 146.149 24.085C146.995 24.085 147.748 23.8841 148.41 23.4822C149.071 23.0804 149.59 22.5279 149.967 21.8247C150.352 21.1215 150.544 20.3262 150.544 19.4388C150.544 18.543 150.352 17.7477 149.967 17.0529C149.59 16.3497 149.071 15.7972 148.41 15.3953C147.748 14.9935 146.995 14.7926 146.149 14.7926C145.304 14.7926 144.55 14.9935 143.889 15.3953C143.228 15.7972 142.704 16.3497 142.319 17.0529C141.942 17.7477 141.754 18.543 141.754 19.4388Z" fill="white"/>
<path d="M156.353 13.1601V19.9913C156.353 21.2052 156.68 22.193 157.333 22.9548C157.994 23.7083 158.852 24.085 159.907 24.085C160.619 24.085 161.255 23.9134 161.816 23.5701C162.377 23.2185 162.82 22.7455 163.147 22.1512C163.473 21.5484 163.637 20.8703 163.637 20.1169V13.1601H165.709V25.7175H163.837L163.724 23.8087C163.239 24.4868 162.632 25.0184 161.904 25.4035C161.184 25.7802 160.38 25.9686 159.493 25.9686C158.48 25.9686 157.58 25.7258 156.793 25.2403C156.014 24.7463 155.399 24.0683 154.947 23.206C154.503 22.3437 154.281 21.3559 154.281 20.2425V13.1601H156.353Z" fill="white"/>
<path d="M173.903 12.909C174.824 12.909 175.678 13.0764 176.465 13.4113C177.252 13.7461 177.926 14.2107 178.487 14.8051V6.88144H180.559V25.7175H178.688L178.575 23.972C178.014 24.5915 177.332 25.0812 176.528 25.4412C175.724 25.7928 174.849 25.9686 173.903 25.9686C172.69 25.9686 171.601 25.6882 170.639 25.1273C169.684 24.558 168.931 23.7836 168.378 22.8041C167.834 21.8163 167.562 20.6945 167.562 19.4388C167.562 18.183 167.834 17.0654 168.378 16.086C168.931 15.0981 169.684 14.3238 170.639 13.7629C171.601 13.1936 172.69 12.909 173.903 12.909ZM169.697 19.4388C169.697 20.3262 169.885 21.1215 170.262 21.8247C170.647 22.5279 171.17 23.0804 171.831 23.4822C172.493 23.8841 173.246 24.085 174.092 24.085C174.937 24.085 175.691 23.8841 176.352 23.4822C177.013 23.0804 177.532 22.5279 177.909 21.8247C178.294 21.1215 178.487 20.3262 178.487 19.4388C178.487 18.543 178.294 17.7477 177.909 17.0529C177.532 16.3497 177.013 15.7972 176.352 15.3953C175.691 14.9935 174.937 14.7926 174.092 14.7926C173.246 14.7926 172.493 14.9935 171.831 15.3953C171.17 15.7972 170.647 16.3497 170.262 17.0529C169.885 17.7477 169.697 18.543 169.697 19.4388Z" fill="white"/>
<g clip-path="url(#clip0_1_296)">
<path d="M45.7198 17.7787C45.6612 25.6796 39.2198 32.0427 31.3189 32.0009C30.2863 32.0009 29.5663 30.9794 29.9095 30.0054C31.3719 25.8749 32.0752 21.4849 31.972 17.0977C31.958 16.4865 31.2436 16.573 31.1626 16.9302L29.876 23.1818C29.7839 23.6283 29.3681 23.9437 28.9132 23.8878C28.4583 23.8432 28.1122 23.4608 28.1122 23.0031L28.0927 14.4408C28.0927 14.184 27.8806 13.9747 27.6238 13.9747C27.3866 13.9747 27.1884 14.1533 27.1605 14.3878L26.273 21.9956C26.22 22.4478 25.8405 22.7855 25.3883 22.7855C25.3856 22.7855 25.3856 22.7855 25.3828 22.7855C24.9279 22.7827 24.5483 22.4366 24.5008 21.9845L23.591 13.1151C23.552 12.7244 22.8738 12.73 22.8403 13.1207L22.1705 20.9435C22.1342 21.3705 21.7965 21.711 21.3695 21.7528C20.9481 21.8087 20.5462 21.5296 20.4262 21.1165L18.6763 15.158C18.6233 14.9738 18.4503 14.8566 18.2577 14.879C18.0428 14.9013 17.8921 15.0855 17.9088 15.3004L18.5759 23.4469C18.6093 23.8348 18.3833 24.2004 18.0205 24.3456C17.6577 24.4907 17.2418 24.3846 16.9962 24.0804L15.464 22.191C15.1626 21.8198 14.6296 21.7333 14.2249 21.9956C13.8146 22.258 13.6779 22.7855 13.9012 23.218L16.7339 29.9217C17.1497 30.9097 16.4269 32.0009 15.3552 32.0009H10.9121C4.91738 32.026 0.0361654 27.1922 -0.000115829 21.1975C-0.00848841 18.3229 1.1553 15.5683 3.22333 13.57C4.68574 12.116 6.53329 11.1141 8.5455 10.6815C8.87761 7.97436 10.1112 5.45701 12.0536 3.54248C16.8818 -1.17408 24.5902 -1.17966 29.4267 3.52852L29.5691 3.67086C35.5694 2.8643 41.4218 5.94541 44.1541 11.3457C45.1895 13.3328 45.7253 15.5404 45.7198 17.7787Z" fill="white"/>
</g>
<path d="M274.099 10.42C273.981 9.94541 273.739 9.51057 273.398 9.15941C273.057 8.80824 272.63 8.55318 272.159 8.42C270.439 8 263.559 8 263.559 8C263.559 8 256.679 8 254.959 8.46C254.489 8.59318 254.061 8.84824 253.721 9.19941C253.38 9.55057 253.138 9.98541 253.019 10.46C252.705 12.2056 252.551 13.9763 252.559 15.75C252.548 17.537 252.702 19.3213 253.019 21.08C253.15 21.5398 253.398 21.9581 253.738 22.2945C254.077 22.6308 254.498 22.8738 254.959 23C256.679 23.46 263.559 23.46 263.559 23.46C263.559 23.46 270.439 23.46 272.159 23C272.63 22.8668 273.057 22.6118 273.398 22.2606C273.739 21.9094 273.981 21.4746 274.099 21C274.412 19.2676 274.566 17.5103 274.559 15.75C274.571 13.963 274.417 12.1787 274.099 10.42V10.42Z" stroke="white" stroke-width="2" stroke-linecap="round" stroke-linejoin="round"/>
<path d="M261.31 19.02L267.06 15.75L261.31 12.48V19.02Z" stroke="white" stroke-width="2" stroke-linecap="round" stroke-linejoin="round"/>
<path d="M328.559 7.01006C327.601 7.68553 326.541 8.20217 325.419 8.54006C324.817 7.84757 324.016 7.35675 323.126 7.13398C322.236 6.91122 321.298 6.96725 320.441 7.29451C319.583 7.62177 318.847 8.20446 318.332 8.96377C317.816 9.72309 317.547 10.6224 317.559 11.5401V12.5401C315.801 12.5856 314.06 12.1959 312.49 11.4055C310.92 10.6151 309.569 9.44869 308.559 8.01006C308.559 8.01006 304.559 17.0101 313.559 21.0101C311.499 22.408 309.046 23.109 306.559 23.0101C315.559 28.0101 326.559 23.0101 326.559 11.5101C326.558 11.2315 326.531 10.9537 326.479 10.6801C327.499 9.67355 328.22 8.40277 328.559 7.01006V7.01006Z" stroke="white" stroke-width="2" stroke-linecap="round" stroke-linejoin="round"/>
<path d="M375.559 6H365.559C362.797 6 360.559 8.23858 360.559 11V21C360.559 23.7614 362.797 26 365.559 26H375.559C378.32 26 380.559 23.7614 380.559 21V11C380.559 8.23858 378.32 6 375.559 6Z" stroke="white" stroke-width="2" stroke-linecap="round" stroke-linejoin="round"/>
<path d="M374.559 15.3698C374.682 16.2021 374.54 17.052 374.152 17.7988C373.765 18.5456 373.152 19.1512 372.4 19.5295C371.649 19.9077 370.797 20.0394 369.966 19.9057C369.136 19.7721 368.368 19.3799 367.773 18.785C367.178 18.1901 366.786 17.4227 366.653 16.592C366.519 15.7614 366.651 14.9097 367.029 14.1582C367.407 13.4067 368.013 12.7936 368.759 12.4061C369.506 12.0186 370.356 11.8764 371.189 11.9998C372.037 12.1257 372.823 12.5213 373.43 13.1281C374.037 13.735 374.433 14.5209 374.559 15.3698Z" stroke="white" stroke-width="2" stroke-linecap="round" stroke-linejoin="round"/>
<path d="M376.059 10.5H376.069" stroke="white" stroke-width="2" stroke-linecap="round" stroke-linejoin="round"/>
<path d="M423.559 6H420.559C419.233 6 417.961 6.52678 417.023 7.46447C416.086 8.40215 415.559 9.67392 415.559 11V14H412.559V18H415.559V26H419.559V18H422.559L423.559 14H419.559V11C419.559 10.7348 419.664 10.4804 419.852 10.2929C420.039 10.1054 420.294 10 420.559 10H423.559V6Z" stroke="white" stroke-width="2" stroke-linecap="round" stroke-linejoin="round"/>
<defs>
<clipPath id="clip0_1_296">
<rect width="45.7199" height="32" fill="white"/>
</clipPath>
</defs>
</svg>
